<svg width="24" height="24" viewBox="0 0 24 24" fill="none" xmlns="http://www.w3.org/2000/svg">
<path fill-rule="evenodd" clip-rule="evenodd" d="M10 1.57895C10 0.706918 10.9402 0 12.1 0H21.9C23.0598 0 24 0.706918 24 1.57894V5.78946C24 6.66149 23.0598 7.36841 21.9 7.36841H18.6899L16.5199 9H16.818C19.28 9 21.3263 10.7794 21.7412 13.1222C21.9329 13.0435 22.1428 13 22.3629 13C23.2667 13 23.9993 13.7326 23.9993 14.6364V17.3636C23.9993 18.2674 23.2667 19 22.3629 19C22.1719 19 21.9885 18.9673 21.818 18.9071V19C21.818 21.7614 19.5794 24 16.818 24H7.18164C4.42022 24 2.18164 21.7614 2.18164 19V18.9069C2.01108 18.9672 1.82755 19 1.63636 19C0.732625 19 0 18.2674 0 17.3636V14.6364C0 13.7326 0.732625 13 1.63636 13C1.85658 13 2.06664 13.0435 2.25841 13.1224C2.67324 10.7794 4.71963 9 7.18164 9H14.2V7.36841H12.1C10.9402 7.36841 10 6.66149 10 5.78946V1.57895ZM21.818 17.6925C21.9295 17.8768 22.1318 18 22.3629 18C22.7144 18 22.9993 17.7151 22.9993 17.3636V14.6364C22.9993 14.2849 22.7144 14 22.3629 14C22.1318 14 21.9295 14.1232 21.818 14.3075V17.6925ZM2.18164 17.6919V14.3081C2.07025 14.1235 1.86772 14 1.63636 14C1.28491 14 1 14.2849 1 14.6364V17.3636C1 17.7151 1.28491 18 1.63636 18C1.86772 18 2.07025 17.8765 2.18164 17.6919ZM12.1 1.05263C11.7134 1.05263 11.4 1.28827 11.4 1.57895V5.78946C11.4 6.08014 11.7134 6.31578 12.1 6.31578H14.9C15.2866 6.31578 15.6 6.55142 15.6 6.84209V8.20303L17.905 6.46993C18.0363 6.37123 18.2143 6.31578 18.4 6.31578H21.9C22.2866 6.31578 22.6 6.08014 22.6 5.78946V1.57894C22.6 1.28827 22.2866 1.05263 21.9 1.05263H12.1ZM13.5 3.6842C13.5 3.39353 13.8134 3.15789 14.2 3.15789H14.207C14.5936 3.15789 14.907 3.39353 14.907 3.6842C14.907 3.97488 14.5936 4.21052 14.207 4.21052H14.2C13.8134 4.21052 13.5 3.97488 13.5 3.6842ZM16.3 3.6842C16.3 3.39353 16.6134 3.15789 17 3.15789H17.007C17.3936 3.15789 17.707 3.39353 17.707 3.6842C17.707 3.97488 17.3936 4.21052 17.007 4.21052H17C16.6134 4.21052 16.3 3.97488 16.3 3.6842ZM19.1 3.6842C19.1 3.39353 19.4134 3.15789 19.8 3.15789H19.807C20.1936 3.15789 20.507 3.39353 20.507 3.6842C20.507 3.97488 20.1936 4.21052 19.807 4.21052H19.8C19.4134 4.21052 19.1 3.97488 19.1 3.6842ZM16.818 10.5H7.18164C5.24864 10.5 3.68164 12.067 3.68164 14V19C3.68164 20.933 5.24865 22.5 7.18164 22.5H16.818C18.751 22.5 20.318 20.933 20.318 19V14C20.318 12.067 18.751 10.5 16.818 10.5ZM8.18217 14C7.88093 14 7.63672 14.2442 7.63672 14.5455V16.4545C7.63672 16.7558 7.88093 17 8.18217 17C8.48342 17 8.72763 16.7558 8.72763 16.4545V14.5455C8.72763 14.2442 8.48342 14 8.18217 14ZM15.2734 14.5455C15.2734 14.2442 15.5176 14 15.8189 14C16.1201 14 16.3643 14.2442 16.3643 14.5455V16.4545C16.3643 16.7558 16.1201 17 15.8189 17C15.5176 17 15.2734 16.7558 15.2734 16.4545V14.5455ZM14.1816 19C14.1816 18.4477 13.7339 18 13.1816 18H10.818C10.2657 18 9.818 18.4477 9.818 19C9.818 19.5523 10.2657 20 10.818 20H13.1816C13.7339 20 14.1816 19.5523 14.1816 19Z" fill="#6F6F6F"/>
</svg>
