<svg width="196" height="34" viewBox="0 0 196 34" fill="none" xmlns="http://www.w3.org/2000/svg">
<g filter="url(#filter0_d_2535_18965)">
<path d="M2.1875 15C2.1875 6.71573 8.90323 0 17.1875 0C25.4718 0 32.1875 6.71573 32.1875 15C32.1875 23.2843 25.4718 30 17.1875 30C8.90323 30 2.1875 23.2843 2.1875 15Z" fill="#F2F1F1"/>
<path d="M14.0062 14.7273C14.0062 13.1207 15.3082 11.8179 16.9148 11.8179C18.5214 11.8179 19.8241 13.1207 19.8241 14.7273C19.8241 16.3339 18.5214 17.6366 16.9148 17.6366C15.3082 17.6366 14.0062 16.3339 14.0062 14.7273ZM12.4334 14.7273C12.4334 17.2024 14.4397 19.2086 16.9148 19.2086C19.3899 19.2086 21.3961 17.2024 21.3961 14.7273C21.3961 12.2522 19.3899 10.2459 16.9148 10.2459C14.4397 10.2459 12.4334 12.2522 12.4334 14.7273ZM20.5262 10.0683C20.5262 10.6463 20.995 11.1158 21.5738 11.1158C22.1518 11.1158 22.6213 10.6463 22.6213 10.0683C22.6213 9.4902 22.1525 9.02141 21.5738 9.02141C20.995 9.02141 20.5262 9.4902 20.5262 10.0683ZM13.3886 21.831C12.5377 21.7923 12.0753 21.6506 11.7679 21.5307C11.3605 21.3721 11.07 21.1832 10.7641 20.878C10.4588 20.5727 10.2692 20.2823 10.1113 19.8748C9.99147 19.5675 9.84977 19.105 9.811 18.2541C9.7687 17.3342 9.76024 17.0578 9.76024 14.7273C9.76024 12.3967 9.76941 12.1211 9.811 11.2004C9.84977 10.3495 9.99217 9.8878 10.1113 9.57973C10.2699 9.17227 10.4588 8.88183 10.7641 8.57588C11.0693 8.27064 11.3598 8.08101 11.7679 7.9231C12.0753 7.80326 12.5377 7.66157 13.3886 7.62279C14.3086 7.5805 14.5849 7.57204 16.9148 7.57204C19.2453 7.57204 19.521 7.5812 20.4416 7.62279C21.2925 7.66157 21.7542 7.80397 22.0623 7.9231C22.4698 8.08101 22.7602 8.27064 23.0662 8.57588C23.3714 8.88113 23.5603 9.17227 23.7189 9.57973C23.8388 9.88709 23.9805 10.3495 24.0193 11.2004C24.0616 12.1211 24.07 12.3967 24.07 14.7273C24.07 17.0571 24.0616 17.3335 24.0193 18.2541C23.9805 19.105 23.8381 19.5675 23.7189 19.8748C23.5603 20.2823 23.3714 20.5727 23.0662 20.878C22.7609 21.1832 22.4698 21.3721 22.0623 21.5307C21.755 21.6506 21.2925 21.7923 20.4416 21.831C19.5217 21.8733 19.2453 21.8818 16.9148 21.8818C14.5849 21.8818 14.3086 21.8733 13.3886 21.831ZM13.3167 6.05287C12.3876 6.09517 11.7531 6.2425 11.1983 6.45822C10.6245 6.68098 10.1381 6.97988 9.65238 7.46488C9.16738 7.94989 8.86848 8.43631 8.64572 9.01084C8.43 9.56563 8.28267 10.2001 8.24037 11.1292C8.19737 12.0597 8.1875 12.3572 8.1875 14.7273C8.1875 17.0973 8.19737 17.3948 8.24037 18.3253C8.28267 19.2545 8.43 19.8889 8.64572 20.4437C8.86848 21.0175 9.16667 21.5047 9.65238 21.9897C10.1374 22.4747 10.6238 22.7729 11.1983 22.9963C11.7538 23.212 12.3876 23.3594 13.3167 23.4017C14.2479 23.444 14.5447 23.4545 16.9148 23.4545C19.2855 23.4545 19.5823 23.4447 20.5128 23.4017C21.442 23.3594 22.0764 23.212 22.6312 22.9963C23.205 22.7729 23.6915 22.4747 24.1772 21.9897C24.6622 21.5047 24.9604 21.0175 25.1838 20.4437C25.3995 19.8889 25.5476 19.2545 25.5892 18.3253C25.6315 17.3941 25.6413 17.0973 25.6413 14.7273C25.6413 12.3572 25.6315 12.0597 25.5892 11.1292C25.5469 10.2001 25.3995 9.56563 25.1838 9.01084C24.9604 8.43701 24.6622 7.95059 24.1772 7.46488C23.6922 6.97988 23.205 6.68098 22.6319 6.45822C22.0764 6.2425 21.442 6.09446 20.5135 6.05287C19.583 6.01057 19.2855 6 16.9155 6C14.5447 6 14.2479 6.00987 13.3167 6.05287Z" fill="#0F52BA"/>
<path d="M42.1875 15C42.1875 6.71573 48.9032 0 57.1875 0C65.4718 0 72.1875 6.71573 72.1875 15C72.1875 23.2843 65.4718 30 57.1875 30C48.9032 30 42.1875 23.2843 42.1875 15Z" fill="#F2F1F1"/>
<path d="M65.642 14.7273C65.642 9.90734 61.7347 6 56.9148 6C52.0948 6 48.1875 9.90734 48.1875 14.7273C48.1875 18.9603 51.2013 22.4895 55.2002 23.2862V16.6415H53.7769V14.2687H55.2002V12.8444C55.2002 10.9087 56.0037 9.75781 58.287 9.75781H60.1879V12.1308H58.9997C58.1108 12.1308 58.052 12.4622 58.052 13.081L58.0488 14.2686H60.2012L59.9493 16.6411H58.0488V23.3815C62.333 22.8256 65.642 19.1629 65.642 14.7273Z" fill="#0F52BA"/>
<path d="M82.1875 15C82.1875 6.71573 88.9032 0 97.1875 0C105.472 0 112.188 6.71573 112.188 15C112.188 23.2843 105.472 30 97.1875 30C88.9032 30 82.1875 23.2843 82.1875 15Z" fill="#F2F1F1"/>
<path d="M97.7466 21.6418L93.9907 21.5731C92.7746 21.5492 91.5555 21.5969 90.3633 21.3491C88.5496 20.9787 88.4212 19.1628 88.2867 17.6396C88.1014 15.4981 88.1732 13.3178 88.5228 11.1942C88.7201 10.0027 89.4968 9.29166 90.6979 9.21428C94.7526 8.93349 98.8342 8.96677 102.88 9.09777C103.307 9.10978 103.737 9.17542 104.159 9.25013C106.238 9.61452 106.289 11.6724 106.424 13.4047C106.558 15.1549 106.502 16.9141 106.245 18.6524C106.039 20.0916 105.644 21.2985 103.979 21.4151C101.894 21.5674 99.856 21.6901 97.7645 21.651C97.7645 21.6418 97.7525 21.6418 97.7466 21.6418ZM95.5385 17.998C97.1102 17.0959 98.6519 16.2089 100.215 15.3129C98.64 14.4109 97.1012 13.5239 95.5385 12.6279V17.998Z" fill="#0F52BA"/>
<path d="M123.188 15C123.188 6.71573 129.903 0 138.188 0C146.472 0 153.188 6.71573 153.188 15C153.188 23.2843 146.472 30 138.188 30C129.903 30 123.188 23.2843 123.188 15Z" fill="#F2F1F1"/>
<path d="M134.848 22.6341C141.641 22.6341 145.356 17.0045 145.356 12.1227C145.356 11.9629 145.353 11.8037 145.345 11.6452C146.068 11.122 146.692 10.4742 147.188 9.73217C146.526 10.0265 145.814 10.2245 145.067 10.3138C145.829 9.85649 146.415 9.13294 146.691 8.27048C145.966 8.70068 145.173 9.00395 144.346 9.16722C143.672 8.44912 142.712 8 141.65 8C139.611 8 137.957 9.65446 137.957 11.6938C137.957 11.9838 137.989 12.2657 138.053 12.5362C134.983 12.3817 132.262 10.9116 130.44 8.67632C130.112 9.24011 129.939 9.88087 129.94 10.5332C129.94 11.8149 130.592 12.9464 131.583 13.6084C130.997 13.5904 130.423 13.432 129.911 13.1463C129.91 13.1618 129.91 13.1769 129.91 13.1935C129.91 14.9826 131.183 16.4764 132.873 16.8149C132.556 16.9014 132.228 16.9451 131.899 16.9449C131.662 16.9449 131.43 16.9215 131.205 16.8783C131.675 18.3462 133.039 19.4144 134.655 19.4442C133.391 20.4353 131.799 21.0256 130.068 21.0256C129.774 21.0258 129.48 21.0088 129.188 20.9744C130.822 22.0224 132.762 22.6341 134.848 22.6341Z" fill="#0F52BA"/>
<rect x="163.188" width="30" height="30" rx="15" fill="#F2F1F1"/>
<path d="M183.068 7.5C183.479 7.5 183.873 7.67559 184.163 7.98816C184.453 8.30072 184.616 8.72464 184.616 9.16667V20.8333C184.616 21.2754 184.453 21.6993 184.163 22.0118C183.873 22.3244 183.479 22.5 183.068 22.5H172.235C171.825 22.5 171.431 22.3244 171.141 22.0118C170.851 21.6993 170.688 21.2754 170.688 20.8333V9.16667C170.688 8.72464 170.851 8.30072 171.141 7.98816C171.431 7.67559 171.825 7.5 172.235 7.5H183.068ZM182.682 20.4167V16C182.682 15.2795 182.416 14.5885 181.943 14.079C181.47 13.5696 180.828 13.2833 180.159 13.2833C179.501 13.2833 178.735 13.7167 178.364 14.3667V13.4417H176.205V20.4167H178.364V16.3083C178.364 15.6667 178.843 15.1417 179.439 15.1417C179.727 15.1417 180.002 15.2646 180.205 15.4834C180.408 15.7022 180.523 15.9989 180.523 16.3083V20.4167H182.682ZM173.69 12.1333C174.035 12.1333 174.365 11.9858 174.609 11.7233C174.853 11.4607 174.99 11.1046 174.99 10.7333C174.99 9.95833 174.41 9.325 173.69 9.325C173.343 9.325 173.01 9.47338 172.765 9.73749C172.52 10.0016 172.382 10.3598 172.382 10.7333C172.382 11.5083 172.97 12.1333 173.69 12.1333ZM174.765 20.4167V13.4417H172.622V20.4167H174.765Z" fill="#0F52BA"/>
</g>
<defs>
<filter id="filter0_d_2535_18965" x="0.1875" y="0" width="197.387" height="34" filterUnits="userSpaceOnUse" color-interpolation-filters="sRGB">
<feFlood flood-opacity="0" result="BackgroundImageFix"/>
<feColorMatrix in="SourceAlpha" type="matrix" values="0 0 0 0 0 0 0 0 0 0 0 0 0 0 0 0 0 0 127 0" result="hardAlpha"/>
<feOffset dy="2"/>
<feGaussianBlur stdDeviation="1"/>
<feComposite in2="hardAlpha" operator="out"/>
<feColorMatrix type="matrix" values="0 0 0 0 0 0 0 0 0 0 0 0 0 0 0 0 0 0 0.25 0"/>
<feBlend mode="normal" in2="BackgroundImageFix" result="effect1_dropShadow_2535_18965"/>
<feBlend mode="normal" in="SourceGraphic" in2="effect1_dropShadow_2535_18965" result="shape"/>
</filter>
</defs>
</svg>
