<svg width="24" height="24" viewBox="0 0 24 24" fill="none" xmlns="http://www.w3.org/2000/svg">
<path fill-rule="evenodd" clip-rule="evenodd" d="M10 1.57895C10 0.706918 10.9402 0 12.1 0H21.9C23.0598 0 24 0.706918 24 1.57894V5.78946C24 6.66149 23.0598 7.36841 21.9 7.36841H18.6899L15.395 9.84583C15.1948 9.99636 14.8937 10.0414 14.6321 9.95992C14.3705 9.87846 14.2 9.68654 14.2 9.47367V7.36841H12.1C10.9402 7.36841 10 6.66149 10 5.78946V1.57895ZM12.1 1.05263C11.7134 1.05263 11.4 1.28827 11.4 1.57895V5.78946C11.4 6.08014 11.7134 6.31578 12.1 6.31578H14.9C15.2866 6.31578 15.6 6.55142 15.6 6.84209V8.20303L17.905 6.46993C18.0363 6.37123 18.2143 6.31578 18.4 6.31578H21.9C22.2866 6.31578 22.6 6.08014 22.6 5.78946V1.57894C22.6 1.28827 22.2866 1.05263 21.9 1.05263H12.1ZM13.5 3.6842C13.5 3.39353 13.8134 3.15789 14.2 3.15789H14.207C14.5936 3.15789 14.907 3.39353 14.907 3.6842C14.907 3.97488 14.5936 4.21052 14.207 4.21052H14.2C13.8134 4.21052 13.5 3.97488 13.5 3.6842ZM16.3 3.6842C16.3 3.39353 16.6134 3.15789 17 3.15789H17.007C17.3936 3.15789 17.707 3.39353 17.707 3.6842C17.707 3.97488 17.3936 4.21052 17.007 4.21052H17C16.6134 4.21052 16.3 3.97488 16.3 3.6842ZM19.1 3.6842C19.1 3.39353 19.4134 3.15789 19.8 3.15789H19.807C20.1936 3.15789 20.507 3.39353 20.507 3.6842C20.507 3.97488 20.1936 4.21052 19.807 4.21052H19.8C19.4134 4.21052 19.1 3.97488 19.1 3.6842Z" fill="#0F52BA"/>
<path fill-rule="evenodd" clip-rule="evenodd" d="M7.18164 9C4.42022 9 2.18164 11.2386 2.18164 14V19C2.18164 21.7614 4.42022 24 7.18164 24H16.818C19.5794 24 21.818 21.7614 21.818 19V14C21.818 11.2386 19.5794 9 16.818 9H7.18164ZM8.18217 14C7.88093 14 7.63672 14.2442 7.63672 14.5455V16.4545C7.63672 16.7558 7.88093 17 8.18217 17C8.48342 17 8.72763 16.7558 8.72763 16.4545V14.5455C8.72763 14.2442 8.48342 14 8.18217 14ZM15.2734 14.5455C15.2734 14.2442 15.5176 14 15.8189 14C16.1201 14 16.3643 14.2442 16.3643 14.5455V16.4545C16.3643 16.7558 16.1201 17 15.8189 17C15.5176 17 15.2734 16.7558 15.2734 16.4545V14.5455ZM14.1816 19C14.1816 18.4477 13.7339 18 13.1816 18H10.818C10.2657 18 9.818 18.4477 9.818 19C9.818 19.5523 10.2657 20 10.818 20H13.1816C13.7339 20 14.1816 19.5523 14.1816 19Z" fill="#0F52BA"/>
<rect y="13" width="3.27273" height="6" rx="1.63636" fill="#0F52BA"/>
<rect x="20.7266" y="13" width="3.27273" height="6" rx="1.63636" fill="#0F52BA"/>
</svg>
