<svg width="24" height="24" viewBox="0 0 24 24" fill="none" xmlns="http://www.w3.org/2000/svg">
<path d="M12 22C17.5228 22 22 17.5228 22 12C22 6.47715 17.5228 2 12 2C6.47715 2 2 6.47715 2 12C2 17.5228 6.47715 22 12 22Z" stroke="#0F52BA" stroke-width="2" stroke-linecap="round" stroke-linejoin="round"/>
<path fill-rule="evenodd" clip-rule="evenodd" d="M12 5.57143C8.4496 5.57143 5.57143 8.4496 5.57143 12C5.57143 15.5504 8.4496 18.4286 12 18.4286C15.5504 18.4286 18.4286 15.5504 18.4286 12C18.4286 8.4496 15.5504 5.57143 12 5.57143ZM3 12C3 7.02944 7.02944 3 12 3C16.9706 3 21 7.02944 21 12C21 16.9706 16.9706 21 12 21C7.02944 21 3 16.9706 3 12Z" fill="#0F52BA"/>
<path fill-rule="evenodd" clip-rule="evenodd" d="M12 10.3333C11.0795 10.3333 10.3333 11.0795 10.3333 12C10.3333 12.9205 11.0795 13.6667 12 13.6667C12.9205 13.6667 13.6667 12.9205 13.6667 12C13.6667 11.0795 12.9205 10.3333 12 10.3333ZM7 12C7 9.23858 9.23858 7 12 7C14.7614 7 17 9.23858 17 12C17 14.7614 14.7614 17 12 17C9.23858 17 7 14.7614 7 12Z" fill="#0F52BA"/>
</svg>
