<svg width="555" height="633" viewBox="0 0 555 633" fill="none" xmlns="http://www.w3.org/2000/svg">
<path d="M185.185 86.4342C184.569 87.5557 183.816 88.5946 182.945 89.5264C182.774 88.9495 182.608 88.413 182.443 87.8534C183.4 87.4711 184.318 86.9958 185.185 86.4342Z" fill="#EFF0F1"/>
<path d="M3.75685 72.8481C3.75685 77.1323 5.43822 81.2409 8.43115 84.2703C11.4241 87.2997 15.4834 89.0015 19.716 89.0015H161.639L169.539 94.3149H15.1107C13.1272 94.3171 11.1627 93.9237 9.32959 93.157C7.49646 92.3903 5.83067 91.2654 4.42735 89.8466C3.02403 88.4278 1.91075 86.743 1.1512 84.8884C0.391647 83.0338 0.000671387 81.0459 0.000671387 79.0383V42.3585C0.000930786 40.3501 0.393326 38.3616 1.1553 36.5072C1.91728 34.6528 3.03384 32.9692 4.44078 31.553C3.99835 33.0505 3.7737 34.6052 3.7739 36.1682L3.75685 72.8481Z" fill="#EFF0F1"/>
<path d="M493.226 528.525C493.226 528.491 493.272 528.45 493.295 528.421C499.844 522.785 506.404 517.627 512.879 512.926C513.065 513.003 513.255 513.068 513.449 513.122C513.753 513.197 514.065 513.242 514.378 513.254C507.886 517.945 501.269 523.096 494.68 528.733C493.808 528.952 492.968 529.282 492.177 529.714C492.556 529.344 492.906 528.947 493.226 528.525Z" fill="#1A1A1A"/>
<path d="M490.399 530.948C490.513 530.902 490.627 530.844 490.741 530.787C490.093 531.397 489.664 532.209 489.521 533.094C489.521 533.152 489.521 533.215 489.521 533.273C486.409 536.065 483.316 538.971 480.242 541.99C479.821 541.875 479.387 541.759 478.96 541.656C482.725 537.917 486.539 534.348 490.399 530.948Z" fill="#1A1A1A"/>
<path d="M522.357 506.285C530.274 500.955 537.895 496.322 544.945 492.353C545.444 492.509 545.962 492.596 546.484 492.612C546.61 492.612 546.735 492.612 546.86 492.612C539.268 496.841 530.975 501.843 522.352 507.687C522.118 507.722 521.884 507.762 521.656 507.808C521.901 507.318 522.141 506.816 522.357 506.285Z" fill="#1A1A1A"/>
<path d="M492.183 529.713C491.657 530.004 491.172 530.365 490.741 530.786C490.627 530.844 490.513 530.902 490.399 530.948C489.956 531.136 489.483 531.242 489.003 531.26C487.891 531.257 486.825 530.814 486.033 530.025C485.538 529.564 485.102 529.042 484.733 528.473C484.31 527.796 483.948 527.081 483.65 526.338C483.317 525.476 483.051 524.589 482.853 523.685C482.644 522.652 482.51 521.605 482.454 520.552C482.326 518.149 482.552 515.74 483.126 513.404C483.656 511.174 484.47 509.023 485.549 507.006C486.399 505.403 487.453 503.919 488.683 502.593C490.866 500.285 493.18 499.131 495.198 499.755C497.216 500.378 498.498 502.685 498.897 505.951C499.097 507.731 499.097 509.529 498.897 511.31C498.69 513.232 498.357 515.138 497.9 517.016C497.475 518.783 496.961 520.528 496.361 522.242C496.047 523.05 495.791 523.846 495.426 524.585C495.124 525.31 494.779 526.017 494.394 526.702C494.075 527.306 493.711 527.884 493.306 528.433C493.306 528.433 493.26 528.502 493.237 528.537C492.915 528.955 492.563 529.348 492.183 529.713Z" fill="#0F52BA"/>
<path d="M490.741 530.787C491.172 530.365 491.657 530.004 492.183 529.713C492.973 529.282 493.814 528.952 494.685 528.733L495.153 528.617C497.001 528.238 498.895 528.136 500.773 528.317C505.254 528.746 509.551 530.336 513.249 532.933C514.798 534.018 516.178 535.333 517.342 536.833C519.371 539.527 519.89 542.152 518.789 543.94C517.689 545.728 515.233 546.45 512.263 546.415C508.774 546.257 505.333 545.522 502.078 544.24C498.773 543.096 495.675 541.412 492.907 539.256C490.678 537.398 489.282 535.333 489.487 533.279C489.487 533.221 489.487 533.158 489.487 533.1C489.637 532.208 490.079 531.394 490.741 530.787Z" fill="#0F52BA"/>
<path d="M512.856 512.926C511.112 512.239 509.801 510.583 509.02 508.414C508.162 505.617 507.976 502.652 508.479 499.767C508.981 496.882 510.158 494.16 511.91 491.828C513.534 489.867 515.558 488.713 517.644 488.944C519.73 489.174 521.48 490.744 522.563 493.195C523.735 496.121 524.038 499.329 523.435 502.426C523.205 503.745 522.836 505.035 522.335 506.274C522.118 506.805 521.879 507.307 521.628 507.785C520.925 507.926 520.236 508.133 519.57 508.403C517.188 509.389 515.638 511.108 515.341 513.185C515.017 513.236 514.689 513.255 514.361 513.243C514.048 513.23 513.736 513.186 513.432 513.11C513.236 513.061 513.044 512.999 512.856 512.926Z" fill="#0F52BA"/>
<path d="M519.593 508.414C520.258 508.144 520.947 507.938 521.651 507.797C521.878 507.751 522.112 507.71 522.346 507.676C524.412 507.389 526.514 507.521 528.53 508.062C531.503 508.774 534.176 510.42 536.168 512.764C537.792 514.818 538.317 517.102 537.553 519.076C536.789 521.049 534.925 522.37 532.622 523.027C530.019 523.65 527.305 523.62 524.716 522.94C522.126 522.261 519.74 520.952 517.763 519.127C516.053 517.397 515.073 515.354 515.352 513.249C515.35 513.232 515.35 513.214 515.352 513.197C515.66 511.143 517.21 509.412 519.593 508.414Z" fill="#0F52BA"/>
<path d="M449.692 499.547C449.803 499.512 449.911 499.47 450.016 499.42C451.493 498.751 452.33 496.864 452.41 494.193C457.409 484.478 462.715 474.89 468.37 465.509C469.438 465.124 470.35 464.392 470.963 463.426C465.702 472.028 460.738 480.82 456.03 489.728L455.87 489.866C455.073 490.591 454.396 491.44 453.864 492.381C453.459 493.135 453.238 493.976 453.22 494.833C453.22 494.926 453.22 495.006 453.22 495.099C452.9 495.716 452.581 496.328 452.268 496.945C448.477 504.381 444.858 511.991 442.578 519.94L441.609 519.162C443.604 512.377 446.54 505.875 449.692 499.547Z" fill="#1A1A1A"/>
<path d="M495.859 425.46C501.016 418.922 506.408 412.597 512.035 406.485C512.166 406.485 512.297 406.52 512.428 406.532C512.846 406.553 513.264 406.516 513.671 406.422C507.519 413.014 501.658 419.883 496.087 427.029C495.928 427.098 495.757 427.156 495.603 427.231C495.711 426.66 495.797 426.072 495.859 425.46Z" fill="#1A1A1A"/>
<path d="M536.539 383.029C536.787 383.325 537.064 383.596 537.365 383.837C531.008 389.183 524.928 394.819 519.126 400.746C519.475 399.932 519.77 399.096 520.01 398.242C525.295 392.946 530.805 387.875 536.539 383.029Z" fill="#1A1A1A"/>
<path d="M472.764 459.22C472.867 458.799 472.964 458.355 473.043 457.899C478.09 449.896 483.409 442.088 489.003 434.477C489.189 434.541 489.379 434.592 489.573 434.627C489.589 434.821 489.618 435.013 489.658 435.204C489.658 435.273 489.709 435.342 489.727 435.411C484.646 442.311 479.798 449.396 475.181 456.665H475.147C474.213 457.372 473.408 458.236 472.764 459.22Z" fill="#1A1A1A"/>
<path d="M450.016 499.419C449.911 499.469 449.802 499.512 449.691 499.546C447.805 500.158 445.343 498.969 442.732 496.662C439.968 494.221 436.992 490.593 434.182 486.277C431.372 481.962 429.252 477.785 428.124 474.249C426.995 470.712 426.927 467.834 428.477 466.386C430.027 464.937 432.94 465.301 436.377 467.297C438.321 468.459 440.114 469.86 441.717 471.468C445.58 475.331 448.603 479.969 450.592 485.083C451.432 487.206 452.007 489.427 452.302 491.694C452.4 492.517 452.438 493.347 452.416 494.175C452.33 496.864 451.493 498.75 450.016 499.419Z" fill="#0F52BA"/>
<path d="M453.858 492.381C454.391 491.44 455.068 490.591 455.865 489.866L456.024 489.728C456.795 489.041 457.63 488.431 458.515 487.905C458.755 487.76 458.977 487.633 459.216 487.501L459.849 487.143C460.276 486.912 460.727 486.681 461.194 486.468C463.196 485.559 465.302 484.906 467.464 484.524C472.063 483.699 476.389 484.149 479.433 485.355C482.477 486.56 484.318 488.493 484.341 490.61C484.363 492.727 482.665 494.649 480.083 496.206C476.976 497.939 473.595 499.11 470.091 499.668C468.232 500.008 466.349 500.2 464.46 500.245C464.01 500.245 463.576 500.245 463.149 500.245H462.511L461.986 500.187C461.406 500.113 460.833 499.984 460.276 499.8C459.834 499.638 459.404 499.445 458.988 499.223C458.529 499.052 458.059 498.916 457.58 498.814C456.605 498.684 455.659 498.382 454.788 497.92C454.317 497.619 453.926 497.206 453.649 496.717C453.372 496.229 453.217 495.679 453.197 495.116C453.197 495.024 453.197 494.943 453.197 494.851C453.218 493.986 453.445 493.139 453.858 492.381Z" fill="#0F52BA"/>
<path d="M468.364 465.509C468.088 465.598 467.803 465.652 467.515 465.671C465.417 465.798 463.428 464.102 461.775 461.425C458.149 454.806 456.618 447.221 457.386 439.693C457.865 436.577 459.033 434.229 461.017 433.508C463 432.787 465.417 433.912 467.646 436.479C469.874 439.047 471.852 443.073 472.815 447.821C473.511 451.139 473.588 454.559 473.043 457.906C472.963 458.362 472.867 458.806 472.764 459.227C472.644 459.406 472.525 459.585 472.428 459.763C471.962 460.587 471.667 461.498 471.561 462.44V462.481C471.389 462.807 471.199 463.122 470.991 463.427C470.369 464.398 469.445 465.131 468.364 465.509Z" fill="#0F52BA"/>
<path d="M472.428 459.763C472.525 459.584 472.644 459.405 472.764 459.227C473.411 458.242 474.221 457.377 475.158 456.671H475.192C476.472 455.72 477.913 455.016 479.444 454.594C480.991 454.169 482.603 454.036 484.198 454.202C485.572 454.346 486.902 454.778 488.102 455.471C490.279 456.763 491.379 458.777 491.271 460.882C491.163 462.988 490.04 464.863 488.632 466.328C487.204 467.812 485.41 468.882 483.435 469.426C481.46 469.969 479.377 469.968 477.404 469.42C475.387 468.965 473.607 467.777 472.399 466.08C471.711 465.015 471.414 463.739 471.561 462.475C471.663 461.52 471.958 460.597 472.428 459.763Z" fill="#0F52BA"/>
<path d="M492.542 429.072C490.473 430.722 489.402 432.729 489.584 434.633C489.391 434.598 489.2 434.548 489.014 434.483C488.31 434.234 487.664 433.842 487.116 433.329C486.626 432.876 486.176 432.38 485.771 431.846C485.56 431.564 485.349 431.27 485.144 430.941C484.939 430.612 484.717 430.283 484.517 429.931C483.624 428.354 482.861 426.704 482.237 424.999C480.768 420.995 479.741 416.839 479.177 412.607C478.929 410.808 478.828 408.993 478.874 407.178C478.874 406.766 478.903 406.368 478.96 405.984C478.988 405.609 479.034 405.239 479.091 404.888C479.199 404.224 479.365 403.572 479.587 402.938C479.916 401.853 480.623 400.927 481.576 400.33C482.08 400.072 482.634 399.928 483.199 399.907C483.764 399.886 484.326 399.989 484.848 400.209C485.533 400.453 486.182 400.793 486.774 401.218C487.099 401.443 487.435 401.697 487.772 401.98C488.108 402.263 488.421 402.557 488.752 402.909C490.219 404.453 491.461 406.201 492.44 408.101C494.771 412.598 496.006 417.595 496.042 422.674C496.036 423.613 495.979 424.551 495.871 425.483C495.808 426.095 495.723 426.683 495.615 427.254C494.519 427.727 493.487 428.337 492.542 429.072Z" fill="#0F52BA"/>
<path d="M489.584 434.632C489.402 432.729 490.473 430.721 492.542 429.071C493.482 428.33 494.51 427.711 495.603 427.231C495.757 427.156 495.928 427.098 496.087 427.029C498.034 426.233 500.092 425.754 502.186 425.61C506.176 425.333 509.944 426.186 512.56 427.917C513.18 428.302 513.754 428.759 514.27 429.279C514.723 429.726 515.107 430.239 515.41 430.802C515.953 431.757 516.106 432.889 515.837 433.957C515.542 434.986 514.991 435.92 514.235 436.669C513.851 437.073 513.433 437.444 512.987 437.777C512.514 438.13 512.017 438.45 511.5 438.734C506.16 441.353 500.017 441.736 494.4 439.802C492.052 438.855 490.308 437.384 489.755 435.417C489.755 435.348 489.704 435.279 489.687 435.209C489.64 435.019 489.606 434.827 489.584 434.632Z" fill="#0F52BA"/>
<path d="M512.428 406.531C512.297 406.531 512.166 406.531 512.035 406.485C508.045 405.868 505.23 399.62 505.668 392.207C506.124 384.551 509.886 378.551 514.076 378.805C518.265 379.059 521.286 385.468 520.835 393.13C520.736 394.859 520.453 396.573 519.992 398.241C519.753 399.095 519.458 399.931 519.108 400.745L518.886 401.235C518.53 401.702 518.247 402.222 518.048 402.776C516.829 404.726 515.312 406.035 513.677 406.422C513.267 406.516 512.847 406.553 512.428 406.531Z" fill="#0F52BA"/>
<path d="M520.956 399.315C522.264 398.478 523.713 397.891 525.231 397.584C528.804 396.861 532.513 397.327 535.804 398.911C537.199 399.577 538.461 400.499 539.526 401.628C541.424 403.694 541.999 406.036 541.235 407.974C540.472 409.913 538.557 411.234 536.339 411.984C533.892 412.728 531.318 412.953 528.781 412.643C526.244 412.333 523.797 411.496 521.594 410.184C519.622 408.915 518.095 407.213 517.798 405.101C517.692 404.323 517.776 403.531 518.043 402.794C518.242 402.24 518.525 401.72 518.881 401.253C519.457 400.491 520.159 399.835 520.956 399.315Z" fill="#0F52BA"/>
<path d="M536.538 383.028C535.862 382.201 535.421 381.205 535.261 380.144C535.076 378.917 535.183 377.663 535.575 376.486C536.023 375.143 536.755 373.914 537.718 372.884C538.681 371.854 539.854 371.048 541.155 370.521C542.293 370.058 543.525 369.88 544.745 370.002C545.789 370.1 546.788 370.481 547.636 371.104C548.485 371.727 549.152 372.57 549.567 373.544C550.306 375.359 550.569 377.336 550.331 379.284C550.137 381.015 549.699 382.446 548.747 383.45C547.795 384.453 546.467 384.984 544.757 385.278C542.849 385.625 540.886 385.466 539.057 384.817C538.46 384.582 537.902 384.255 537.404 383.848C537.088 383.605 536.798 383.331 536.538 383.028Z" fill="#0F52BA"/>
<path d="M540.623 495.99C539.947 495.164 539.506 494.167 539.346 493.106C539.16 491.879 539.268 490.625 539.66 489.448C540.108 488.105 540.839 486.876 541.803 485.846C542.766 484.816 543.939 484.01 545.24 483.483C546.378 483.02 547.61 482.842 548.83 482.964C549.874 483.062 550.873 483.443 551.721 484.066C552.569 484.689 553.237 485.532 553.652 486.506C554.391 488.321 554.654 490.298 554.416 492.246C554.222 493.977 553.784 495.408 552.832 496.412C551.88 497.415 550.552 497.946 548.842 498.24C546.934 498.587 544.971 498.428 543.142 497.779C542.545 497.544 541.987 497.217 541.489 496.81C541.173 496.567 540.883 496.293 540.623 495.99Z" fill="#0F52BA"/>
<path d="M318.079 167.507C317.971 167.471 317.857 167.458 317.744 167.468C317.631 167.478 317.521 167.511 317.42 167.565C317.32 167.619 317.231 167.692 317.159 167.781C317.087 167.87 317.034 167.973 317.002 168.084L309.473 191.5C309.37 191.443 309.262 191.379 309.154 191.327L309.074 191.287C309.125 188.402 309.159 185.253 309.159 182.057C309.159 177.603 309.091 173.068 308.886 169.163C308.658 164.749 308.544 154.082 308.447 141.823C308.35 129.564 308.264 115.677 308.071 104.762C308.031 102.57 307.991 100.499 307.94 98.5836C308.946 99.4837 310.077 100.23 311.297 100.799C313.713 101.879 316.333 102.411 318.974 102.357C327.284 102.357 333.07 100.309 336.985 97.8798C336.74 101.722 336.444 106.331 336.119 111.408C335.184 125.831 333.976 143.929 332.882 158.824C332.593 162.77 332.361 166.44 332.186 169.832C332.084 170.57 331.981 171.32 331.873 172.088L318.079 167.507Z" fill="#0F52BA"/>
<path d="M353.56 609.534L346.851 610.451C343.661 610.953 340.537 611.818 337.538 613.03C329.296 606.996 315.526 603.038 299.92 603.038C295.363 603.03 290.812 603.379 286.309 604.082C286.343 602.484 286.366 600.973 286.383 599.594C287.715 599.031 288.857 598.089 289.672 596.882C299.061 591.839 309.378 588.812 319.977 587.992C317.661 568.24 323.06 548.354 335.024 532.574C336.991 545.14 338.838 556.47 340.479 566.151C343.01 581.046 345.039 592.036 346.355 597.69C346.703 599.202 346.994 600.327 347.239 601.082C347.337 601.411 347.469 601.728 347.632 602.029C348.025 602.642 348.554 603.154 349.177 603.523C349.851 603.926 350.578 604.229 351.337 604.423C352.105 604.622 352.886 604.765 353.674 604.85L354.13 609.465L353.56 609.534Z" fill="#172048"/>
<path d="M378.269 630.383C378.497 628.202 378.582 625.26 378.582 622.047C378.582 618.585 378.48 614.778 378.354 611.322C378.212 607.486 378.029 604.065 377.91 601.953C379.688 601.532 380.759 601.238 380.759 601.238C380.944 601.188 381.107 601.076 381.221 600.921C381.336 600.767 381.396 600.577 381.392 600.384C381.392 600.384 381.392 599.905 381.364 598.988C381.335 598.071 381.318 596.715 381.278 594.949C381.21 591.448 381.107 586.348 380.987 579.984C380.742 567.252 380.417 549.443 380.098 529.141C379.973 521.169 379.842 512.803 379.722 504.219C390.491 502.003 401.607 502.191 412.296 504.772C422.985 507.353 432.989 512.263 441.61 519.161L442.567 519.94C449.221 525.449 454.899 532.064 459.359 539.503C459.991 539.503 460.618 539.503 461.251 539.503C467.206 539.502 473.14 540.234 478.92 541.683C479.348 541.787 479.781 541.903 480.203 542.018C498.973 547.116 514.975 559.551 524.69 576.587C534.406 593.624 537.04 613.868 532.013 632.87H377.836C378.046 632.054 378.191 631.222 378.269 630.383Z" fill="#172048"/>
<path d="M285.197 627.499C285.596 623.657 285.864 618.552 286.046 613.406C286.16 610.215 286.24 607.008 286.291 604.083C290.795 603.38 295.345 603.031 299.902 603.039C315.502 603.039 329.273 606.996 337.521 613.031C332.047 615.206 327.227 618.784 323.533 623.415C321.26 626.237 319.502 629.447 318.341 632.894H284.296C284.359 632.686 284.422 632.467 284.479 632.23C284.817 630.67 285.057 629.09 285.197 627.499Z" fill="#172048"/>
<path d="M320.143 632.871C320.303 632.409 320.531 631.815 320.838 631.14C321.893 628.763 323.245 626.533 324.862 624.505C328.852 619.509 335.612 614.046 347.091 612.194L353.566 611.306C354.116 611.537 354.69 611.708 355.276 611.813H355.305C359.809 612.481 364.352 612.846 368.904 612.904C370.618 612.904 372.339 612.827 374.068 612.673C374.935 612.598 375.807 612.494 376.684 612.373C376.793 615.552 376.878 618.944 376.878 622.077C376.926 625.065 376.791 628.053 376.473 631.024C376.411 631.564 376.301 632.097 376.143 632.617C376.112 632.714 376.073 632.808 376.029 632.899H320.172L320.143 632.871Z" fill="#0F52BA"/>
<path d="M337.515 613.031C340.514 611.819 343.638 610.954 346.829 610.452L353.537 609.535C353.353 609.561 353.182 609.647 353.051 609.781C352.92 609.915 352.835 610.088 352.81 610.274C352.785 610.461 352.82 610.651 352.912 610.815C353.003 610.979 353.144 611.109 353.315 611.184L353.543 611.277L347.068 612.165C335.589 614.017 328.829 619.48 324.839 624.476C323.222 626.504 321.87 628.734 320.815 631.111C320.507 631.815 320.279 632.409 320.12 632.842H318.313C319.474 629.395 321.232 626.186 323.505 623.363C327.212 618.748 332.04 615.187 337.515 613.031Z" fill="black"/>
<path d="M368.898 612.874C370.611 612.874 372.333 612.798 374.062 612.644C372.333 612.801 370.611 612.878 368.898 612.874Z" fill="black"/>
<path d="M376.467 630.996C376.785 628.024 376.92 625.036 376.872 622.048C376.872 618.915 376.787 615.523 376.678 612.344C376.997 612.298 377.311 612.263 377.63 612.211C377.837 612.178 378.025 612.069 378.158 611.906C378.291 611.742 378.361 611.535 378.354 611.323C378.479 614.784 378.582 618.569 378.582 622.048C378.582 625.261 378.497 628.203 378.269 630.384C378.191 631.223 378.046 632.055 377.835 632.871H376.023C376.067 632.779 376.106 632.685 376.137 632.588C376.295 632.068 376.405 631.535 376.467 630.996Z" fill="black"/>
<path d="M376.633 610.608C374.076 610.969 371.497 611.148 368.915 611.144C364.566 611.093 360.225 610.75 355.92 610.117L355.413 604.994C355.914 604.994 356.427 605.029 356.957 605.029C361.893 605.029 367.832 604.077 372.558 603.131C373.903 602.86 375.145 602.594 376.24 602.346C376.24 602.629 376.268 602.923 376.285 603.24C376.376 605.179 376.502 607.752 376.633 610.608Z" fill="#EFF0F1"/>
<path d="M377.63 612.211C377.311 612.263 376.997 612.298 376.678 612.344C375.801 612.465 374.928 612.569 374.062 612.644C372.333 612.798 370.612 612.875 368.898 612.875C364.346 612.817 359.803 612.453 355.299 611.784H355.27C354.684 611.679 354.11 611.508 353.56 611.277L353.332 611.185C353.162 611.109 353.02 610.98 352.929 610.815C352.838 610.651 352.802 610.461 352.827 610.274C352.852 610.088 352.937 609.915 353.068 609.781C353.199 609.647 353.37 609.561 353.555 609.535L354.124 609.46L353.669 604.844C354.238 604.908 354.808 604.96 355.378 604.989L355.886 610.112C360.19 610.744 364.532 611.087 368.881 611.138C371.463 611.143 374.042 610.963 376.599 610.602C376.485 607.717 376.359 605.156 376.251 603.235C376.251 602.917 376.222 602.623 376.205 602.341L377.915 601.948C378.035 604.06 378.217 607.481 378.36 611.317C378.368 611.531 378.298 611.74 378.163 611.905C378.029 612.07 377.839 612.179 377.63 612.211Z" fill="black"/>
<path d="M284.36 612.678C283.79 612.834 283.175 612.961 282.57 613.059C282.109 613.14 281.647 613.197 281.18 613.243C280.41 613.318 279.641 613.37 278.86 613.37C273.371 613.37 267.626 611.593 262.473 609.592L264.348 597.24C265.391 597.615 266.862 598.123 268.578 598.625C271.997 599.634 276.432 600.65 280.473 600.655C281.885 600.672 283.294 600.513 284.668 600.182C284.6 603.817 284.508 608.253 284.36 612.678Z" fill="#EFF0F1"/>
<path d="M286.047 613.406C286.051 613.269 286.023 613.133 285.966 613.009C285.908 612.885 285.823 612.776 285.716 612.692C285.61 612.608 285.485 612.55 285.352 612.524C285.22 612.497 285.083 612.503 284.952 612.54C284.759 612.598 284.559 612.638 284.382 612.69C284.531 608.254 284.622 603.817 284.667 600.183C285.155 600.06 285.635 599.906 286.104 599.721L286.389 599.594C286.389 600.973 286.349 602.479 286.315 604.083C286.24 607.008 286.161 610.215 286.047 613.406Z" fill="black"/>
<path d="M264.348 597.241L262.495 609.604C267.625 611.606 273.393 613.383 278.882 613.383C273.182 613.383 267.169 611.456 261.857 609.344C261.648 609.261 261.416 609.261 261.207 609.344L260.791 609.402L262.712 596.589C262.826 596.67 263.413 596.906 264.348 597.241Z" fill="black"/>
<path d="M226.604 632.871C226.769 632.41 226.992 631.816 227.299 631.141C228.356 628.765 229.708 626.535 231.323 624.506C235.313 619.51 242.073 614.047 253.552 612.195L260.614 611.226L261.486 611.11C266.81 613.193 272.886 615.149 278.853 615.149C280.683 615.156 282.508 614.951 284.291 614.537C284.069 620.347 283.721 625.983 283.225 629.537C283.111 630.512 282.921 631.477 282.655 632.421C282.608 632.577 282.547 632.727 282.473 632.871H226.615H226.604Z" fill="#0F52BA"/>
<path d="M261.834 609.356C267.146 611.456 273.143 613.394 278.859 613.394C279.64 613.394 280.41 613.342 281.179 613.267C281.647 613.221 282.108 613.163 282.57 613.082C283.174 612.984 283.767 612.857 284.36 612.702C284.559 612.65 284.759 612.609 284.93 612.552C285.06 612.514 285.197 612.509 285.33 612.535C285.462 612.562 285.587 612.619 285.694 612.703C285.8 612.788 285.886 612.896 285.943 613.02C286 613.144 286.028 613.28 286.024 613.417C285.842 618.563 285.574 623.669 285.175 627.511C285.034 629.094 284.794 630.666 284.457 632.218C284.4 632.455 284.337 632.674 284.274 632.882H282.439C282.513 632.738 282.574 632.587 282.621 632.432C282.887 631.487 283.077 630.523 283.191 629.547C283.698 625.971 284.035 620.317 284.257 614.548C282.474 614.961 280.649 615.166 278.82 615.159C272.835 615.159 266.776 613.209 261.452 611.121L260.58 611.236L253.518 612.206C242.033 614.057 235.279 619.521 231.289 624.517C229.687 626.544 228.346 628.77 227.3 631.14C226.992 631.844 226.77 632.438 226.604 632.87H224.797C225.959 629.424 227.717 626.214 229.99 623.392C233.576 618.9 238.227 615.399 243.51 613.215C246.649 611.901 249.933 610.974 253.29 610.452L260.746 609.431L261.162 609.373C261.375 609.278 261.617 609.271 261.834 609.356Z" fill="black"/>
<path d="M313.326 366.033H313.263C313.038 366.059 312.832 366.174 312.691 366.354C312.55 366.534 312.485 366.763 312.511 366.991C312.716 368.798 312.923 370.608 313.132 372.419C311.582 390.032 309.775 410.213 307.849 431.091C302.867 485.084 297.059 543.75 292.613 574.614C291.348 583.424 290.185 589.983 289.194 593.439C289.016 594.115 288.787 594.777 288.51 595.417C287.849 596.673 286.75 597.634 285.426 598.112C283.826 598.696 282.133 598.972 280.433 598.925C276.911 598.925 272.898 598.071 269.649 597.148C266.856 596.358 264.628 595.527 263.727 595.175V595.146C263.67 594.812 263.585 594.298 263.471 593.612C263.248 592.233 262.901 590.15 262.496 587.312C261.652 581.641 260.433 572.964 258.934 560.976C255.936 536.988 251.832 499.731 247.397 446.633C246.968 441.533 246.588 436.427 246.257 431.316C248.047 432.48 249.9 433.539 251.809 434.489C262.787 439.969 278.974 444.019 300.998 444.296C301.211 444.299 301.418 444.22 301.577 444.076C301.737 443.932 301.837 443.733 301.858 443.517C306.452 395.986 307.986 340.655 307.986 287.977C307.986 273.612 307.872 259.443 307.672 245.684L308.88 246.082L313.326 366.033Z" fill="#0F52BA"/>
<path d="M246.273 431.316C246.604 436.419 246.984 441.525 247.413 446.632C251.848 499.708 255.963 536.988 258.95 560.976C260.449 572.964 261.668 581.641 262.512 587.312C262.934 590.15 263.264 592.233 263.487 593.611C263.601 594.298 263.686 594.811 263.743 595.146V595.175C264.644 595.527 266.872 596.329 269.665 597.148C272.914 598.071 276.927 598.925 280.449 598.925C282.149 598.972 283.842 598.696 285.442 598.111C286.766 597.634 287.865 596.673 288.526 595.417C288.803 594.776 289.032 594.115 289.21 593.438C290.184 589.977 291.347 583.423 292.629 574.614C297.075 543.749 302.889 485.083 307.865 431.091C309.791 410.212 311.598 390.032 313.148 372.419C313.468 375.205 313.798 377.998 314.123 380.79C311.991 404.882 309.461 432.908 306.816 460.634C303.744 492.86 300.518 524.671 297.588 549.478C296.129 561.864 294.738 572.485 293.479 580.521C292.846 584.56 292.247 587.917 291.689 590.548C291.408 591.863 291.136 592.992 290.874 593.935C290.667 594.708 290.403 595.464 290.082 596.196C289.962 596.433 289.829 596.662 289.683 596.883C288.868 598.089 287.726 599.031 286.394 599.594L286.109 599.721C285.64 599.906 285.161 600.06 284.673 600.182C283.299 600.513 281.89 600.672 280.478 600.656C276.436 600.656 272.019 599.634 268.582 598.625C266.872 598.123 265.396 597.615 264.353 597.24C263.441 596.906 262.854 596.663 262.717 596.617H262.689C262.555 596.564 262.437 596.476 262.346 596.363C262.255 596.25 262.194 596.115 262.17 595.971C262.17 595.936 254.601 553.032 245.732 446.8C245.272 441.231 244.864 435.654 244.507 430.069C245.054 430.496 245.647 430.906 246.273 431.316Z" fill="black"/>
<path d="M369.502 445.888C372.278 445.692 374.911 445.438 377.345 445.115C377.944 514.731 379.522 591.742 379.693 599.727L378.029 600.142C376.581 600.494 374.541 600.961 372.21 601.429C367.542 602.363 361.665 603.292 356.94 603.292C355.58 603.308 354.22 603.208 352.876 602.992C351.887 602.849 350.931 602.527 350.055 602.04C349.661 601.813 349.325 601.495 349.074 601.111C348.987 600.925 348.913 600.732 348.852 600.535C348.744 600.2 348.613 599.738 348.465 599.173C348.174 598.019 347.815 596.467 347.404 594.506C346.578 590.583 345.529 585.085 344.315 578.272C341.881 564.639 338.764 545.74 335.338 523.552C331.776 500.424 327.877 473.713 324.081 445.669C330.391 445.998 340.61 446.425 351.172 446.425C357.385 446.436 363.734 446.292 369.502 445.888Z" fill="#0F52BA"/>
<path d="M314.21 366.795C314.184 366.579 314.079 366.38 313.915 366.239C313.751 366.098 313.541 366.025 313.326 366.033L308.897 246.036L319.636 249.584C318.427 259.553 317.447 269.811 316.871 280.161C315.395 306.629 314.905 333.709 314.905 358.043C314.905 363.276 314.905 368.382 314.968 373.331C314.705 371.158 314.453 368.98 314.21 366.795Z" fill="#0F52BA"/>
<path d="M381.01 579.997C381.13 586.343 381.232 591.46 381.301 594.962C381.341 596.693 381.369 598.072 381.386 599.001C381.403 599.929 381.415 600.391 381.415 600.397C381.419 600.59 381.359 600.779 381.244 600.934C381.129 601.089 380.967 601.2 380.782 601.25C380.782 601.25 379.688 601.545 377.932 601.966L376.222 602.358C375.128 602.606 373.886 602.872 372.54 603.143C367.815 604.089 361.876 605.041 356.94 605.041C356.41 605.041 355.897 605.041 355.396 605.006C354.791 605.006 354.221 604.925 353.686 604.862C352.897 604.777 352.116 604.635 351.349 604.435C350.59 604.241 349.862 603.938 349.189 603.535C348.565 603.166 348.036 602.654 347.644 602.041C347.481 601.74 347.349 601.423 347.251 601.095C347.006 600.339 346.715 599.214 346.367 597.702C345.073 592.049 343.021 581.059 340.491 566.163C338.849 556.482 337.003 545.152 335.036 532.587C331.098 507.462 326.669 477.377 322.366 445.6L324.104 445.693C327.9 473.731 331.799 500.441 335.361 523.575C338.781 545.763 341.904 564.663 344.338 578.295C345.552 585.109 346.618 590.606 347.427 594.529C347.838 596.491 348.197 598.06 348.488 599.197C348.636 599.774 348.767 600.224 348.875 600.558C348.936 600.755 349.01 600.948 349.097 601.135C349.348 601.518 349.684 601.836 350.078 602.064C350.954 602.55 351.91 602.873 352.899 603.016C354.243 603.231 355.602 603.332 356.963 603.316C361.688 603.316 367.565 602.387 372.233 601.452C374.564 600.985 376.604 600.518 378.052 600.166L379.716 599.75C379.545 591.76 377.967 514.749 377.368 445.139C377.938 445.058 378.508 444.977 379.078 444.891C379.249 464.662 379.5 485.026 379.773 504.255C379.893 512.839 380.024 521.204 380.15 529.177C380.446 549.456 380.765 567.265 381.01 579.997Z" fill="#0F52BA"/>
<path d="M313.132 372.419C312.923 370.608 312.716 368.798 312.511 366.991C312.485 366.763 312.55 366.534 312.691 366.354C312.832 366.174 313.038 366.059 313.263 366.033H313.326C313.541 366.024 313.751 366.098 313.915 366.239C314.078 366.38 314.184 366.578 314.209 366.794C314.452 368.975 314.703 371.16 314.962 373.348C315.007 378.996 315.076 384.43 315.161 389.611C314.808 386.669 314.456 383.729 314.107 380.79C313.782 377.998 313.451 375.206 313.132 372.419Z" fill="black"/>
<path d="M371.589 185.125L352.979 178.998L347.194 134.213L358.753 96.7544C362.424 98.7736 366.282 101.029 369.742 103.297L369.964 103.441L372.13 172.67C372.003 172.67 371.878 172.702 371.765 172.762C371.567 172.868 371.418 173.048 371.35 173.264C371.282 173.479 371.3 173.714 371.401 173.916C372.78 176.604 374 180.481 375.02 184.802C376.04 189.123 376.884 193.906 377.551 198.446C377.927 201.002 378.246 203.477 378.52 205.761C377.591 205.289 376.622 204.902 375.624 204.607C373.525 204.03 371.385 203.618 369.223 203.373C368.42 203.269 367.582 203.177 366.733 203.09L372.159 186.216C372.194 186.106 372.207 185.991 372.197 185.876C372.187 185.762 372.155 185.65 372.101 185.548C372.048 185.447 371.976 185.357 371.887 185.284C371.799 185.212 371.698 185.157 371.589 185.125Z" fill="white"/>
<path d="M347.877 258.889C347.985 258.924 348.099 258.936 348.212 258.926C348.325 258.915 348.434 258.883 348.535 258.829C348.635 258.775 348.724 258.702 348.796 258.613C348.868 258.524 348.921 258.422 348.954 258.312L352.653 246.814C362.357 249.867 372.421 251.592 382.577 251.943C382.622 253.068 382.674 254.216 382.725 255.404C383.221 266.764 383.905 280.858 384.663 296.151C386.185 326.728 388.009 362.115 389.223 390.014C390.038 408.614 390.579 423.896 390.579 432.181C390.579 433.756 390.579 435.065 390.516 436.109C390.502 436.841 390.443 437.572 390.34 438.296C390.201 438.877 389.864 439.39 389.388 439.744C388.619 440.356 387.759 440.841 386.84 441.18C383.906 442.235 380.864 442.951 377.772 443.315C370.334 444.365 360.61 444.705 351.183 444.705C336.192 444.705 321.926 443.846 318.546 443.627C318.546 443.367 318.517 443.05 318.5 442.68C318.443 441.527 318.369 439.894 318.278 437.748C318.09 433.45 317.845 427.219 317.6 419.466C317.11 403.958 316.619 382.376 316.619 358.06C316.619 333.743 317.11 306.715 318.58 280.269C319.15 270.069 320.113 259.962 321.299 250.131L347.877 258.889ZM356.563 276.196C356.603 276.392 356.654 276.629 356.728 276.9C356.865 277.448 357.07 278.152 357.35 278.994C358.066 281.167 358.893 283.301 359.829 285.386C362.041 290.371 365.386 296.463 369.975 301.54C370.132 301.68 370.335 301.757 370.545 301.755C370.755 301.754 370.957 301.674 371.113 301.532C371.269 301.389 371.367 301.194 371.389 300.982C371.412 300.771 371.357 300.559 371.234 300.386C365.084 293.567 361.14 284.677 359.339 279.542C358.907 278.357 358.543 277.147 358.25 275.919C358.23 275.828 358.217 275.736 358.21 275.642C358.21 275.413 358.12 275.193 357.96 275.03C357.8 274.868 357.582 274.777 357.355 274.777C357.129 274.777 356.911 274.868 356.751 275.03C356.591 275.193 356.5 275.413 356.5 275.642C356.506 275.821 356.527 275.998 356.563 276.173V276.196Z" fill="white"/>
<path d="M343.968 87.7901C344.058 87.7728 344.151 87.7728 344.241 87.7901C344.381 87.8138 344.518 87.8485 344.652 87.8939C345.193 88.0728 346.071 88.442 347.273 88.9901C348.801 89.6824 350.83 90.6631 353.133 91.8342L343.968 87.7901Z" fill="black"/>
<path d="M370.254 101.589C370.044 101.501 369.808 101.502 369.599 101.591C369.389 101.68 369.223 101.849 369.137 102.062C369.051 102.274 369.052 102.513 369.139 102.725C369.227 102.937 369.394 103.105 369.604 103.192C369.724 103.239 369.838 103.296 369.958 103.348V103.44L369.736 103.296C366.276 101.029 362.417 98.7732 358.746 96.7541L359.18 95.3349C359.208 95.2395 359.219 95.14 359.214 95.0406C361.653 96.3733 364.19 97.8213 366.623 99.3155C367.877 100.077 369.109 100.844 370.3 101.623L370.226 101.589H370.254Z" fill="black"/>
<path d="M332.175 169.792C332.133 170.584 332.093 171.353 332.055 172.1L331.861 172.036C331.981 171.28 332.084 170.53 332.175 169.792Z" fill="black"/>
<path d="M377.345 445.115C374.911 445.438 372.278 445.692 369.502 445.888C363.734 446.292 357.385 446.465 351.172 446.465C340.593 446.465 330.391 446.038 324.081 445.709L322.343 445.617C319.407 445.45 317.663 445.329 317.658 445.329C317.45 445.313 317.254 445.222 317.108 445.071C316.962 444.92 316.876 444.72 316.865 444.509C316.865 444.509 315.697 422.143 315.155 389.64C315.07 384.447 315.002 379.024 314.956 373.377C314.916 368.427 314.893 363.321 314.893 358.088C314.893 333.749 315.383 306.669 316.86 280.206C317.43 269.821 318.416 259.587 319.624 249.63L321.283 250.178C320.097 259.985 319.134 270.116 318.564 280.315C317.093 306.744 316.603 333.789 316.603 358.106C316.603 382.422 317.093 404.005 317.584 419.512C317.829 427.266 318.074 433.496 318.262 437.794C318.353 439.94 318.427 441.602 318.484 442.727C318.484 443.102 318.518 443.413 318.53 443.673C321.91 443.892 336.199 444.752 351.166 444.752C360.594 444.752 370.317 444.411 377.756 443.361C380.851 443.002 383.897 442.29 386.835 441.238C387.754 440.899 388.614 440.414 389.383 439.802C389.859 439.448 390.196 438.935 390.335 438.354C390.439 437.629 390.498 436.899 390.512 436.167C390.551 435.135 390.574 433.813 390.574 432.238C390.574 423.954 390.004 408.672 389.218 390.072C388.004 362.173 386.18 326.791 384.658 296.209C383.9 280.915 383.216 266.822 382.72 255.462C382.669 254.28 382.617 253.155 382.572 252.001C383.142 252.001 383.712 252.041 384.282 252.047C384.481 256.731 384.715 261.947 384.983 267.589C386.197 293.607 388.021 328.516 389.543 360.044C391.064 391.572 392.278 419.708 392.284 432.233C392.284 433.819 392.284 435.158 392.221 436.231C392.204 437.044 392.135 437.855 392.016 438.659C391.809 439.635 391.268 440.506 390.489 441.117C389.109 442.271 387.029 443.136 384.401 443.834C382.634 444.283 380.846 444.641 379.044 444.907C378.497 444.954 377.927 445.034 377.345 445.115Z" fill="black"/>
<path d="M312.014 99.1897C310.426 98.4498 309.013 97.3737 307.871 96.034C307.774 92.7399 307.66 90.0457 307.512 88.1823C307.483 87.7727 307.449 87.4035 307.415 87.0746C308.811 86.4977 309.797 86.1343 309.974 86.0708H310.002C310.153 86.0182 310.287 85.9239 310.388 85.7985C310.488 85.673 310.552 85.5216 310.572 85.3612L312.111 72.8827C312.368 72.7731 312.715 72.6231 313.114 72.4385C314.091 72 315.042 71.507 315.964 70.9616C316.546 70.6288 317.084 70.2237 317.566 69.7559C317.837 69.4966 318.034 69.1676 318.136 68.804C318.165 68.6813 318.168 68.5536 318.143 68.4299C318.119 68.3061 318.068 68.1893 317.994 68.0876C317.92 67.9859 317.825 67.9018 317.716 67.8412C317.606 67.7806 317.485 67.7449 317.361 67.7367L311.889 67.3905H311.764H311.524C311.214 67.3625 310.906 67.3163 310.601 67.2521C309.517 67.0309 308.469 66.656 307.489 66.1386C305.044 64.8579 302.068 62.331 299.994 57.0869C298.899 54.4851 298.284 50.3775 298.284 45.6411C298.313 39.9638 299.102 34.3166 300.626 28.853C300.843 28.478 301.116 28.0223 301.487 27.4627C303.29 24.7607 305.262 22.1786 307.392 19.7321C307.392 20.309 307.352 20.9379 307.352 21.5321C307.352 30.9818 310.772 38.0547 314.847 41.695C316.05 42.8219 317.493 43.653 319.065 44.1238C319.566 44.2665 320.083 44.3441 320.604 44.3546C320.952 44.3582 321.299 44.3036 321.63 44.193C321.94 44.0788 322.224 43.9 322.462 43.6681C322.875 43.2247 323.157 42.6731 323.277 42.0758C323.372 41.6827 323.443 41.2838 323.488 40.8816C323.562 40.3047 323.619 39.7278 323.704 39.1509C323.806 38.3507 323.997 37.5649 324.274 36.8086C324.701 35.681 325.429 34.6961 326.378 33.9644C326.759 33.6674 327.174 33.4176 327.614 33.2202C327.877 33.0869 328.165 33.0121 328.458 33.001C328.612 32.9984 328.765 33.0341 328.903 33.1049C329.067 33.1925 329.21 33.3145 329.324 33.4625C329.74 34.0169 330.035 34.6538 330.191 35.3317C330.698 37.1259 330.96 39.947 330.955 43.6969C330.955 46.4776 330.818 49.766 330.556 53.5043C330.504 54.2255 330.481 54.9062 330.481 55.5466C330.481 58.1773 330.886 60.1619 331.621 61.633C332.1 62.634 332.841 63.4824 333.765 64.0848C333.081 68.9615 332.7 73.8768 332.625 78.8018C332.614 81 332.741 83.1967 333.006 85.3785C333.028 85.5391 333.084 85.6927 333.172 85.8285C333.232 85.9199 333.3 86.0049 333.377 86.0824C333.514 86.2173 333.662 86.339 333.822 86.4458C334.211 86.702 334.614 86.9351 335.03 87.1439C335.765 87.5189 336.666 87.9285 337.595 88.3381C337.521 89.5554 337.412 91.2803 337.276 93.4264C337.23 94.1302 337.184 94.886 337.133 95.6764C333.519 98.209 327.82 100.574 318.985 100.58C316.589 100.636 314.21 100.162 312.014 99.1897Z" fill="white"/>
<path d="M310.823 72.9638C310.941 73.0514 311.078 73.1075 311.223 73.1266C311.367 73.1458 311.514 73.1275 311.65 73.0734L312.117 72.8715L310.578 85.35C310.558 85.5104 310.494 85.6618 310.393 85.7873C310.293 85.9127 310.159 86.007 310.008 86.0596H309.98C309.803 86.1231 308.84 86.475 307.421 87.0634C307.381 86.6827 307.335 86.3481 307.29 86.0712C307.247 85.8364 307.182 85.6065 307.096 85.3846C307.097 85.3693 307.097 85.3538 307.096 85.3385C307.899 85.0039 308.543 84.7616 308.954 84.6058L310.493 72.1792C310.477 72.3277 310.499 72.4779 310.557 72.6153C310.615 72.7527 310.706 72.8727 310.823 72.9638Z" fill="black"/>
<path d="M299.116 30.6176C299.297 30.6229 299.474 30.5698 299.623 30.466C299.771 30.3623 299.883 30.2133 299.943 30.0407L299.983 29.9484C300.017 29.8619 300.085 29.7119 300.193 29.4984C300.302 29.285 300.41 29.0888 300.564 28.8177C299.053 34.2736 298.277 39.9108 298.255 45.5769C298.255 50.3133 298.888 54.4209 299.965 57.0227C302.04 62.2668 305.015 64.7937 307.461 66.0744C308.441 66.5918 309.489 66.9667 310.573 67.1879C310.877 67.2521 311.186 67.2983 311.496 67.3263H311.735H311.695C311.473 67.3134 311.254 67.3886 311.084 67.5361C310.915 67.6836 310.81 67.8917 310.789 68.1167L310.721 68.9532C309.311 68.7235 307.946 68.2658 306.68 67.5975C303.904 66.161 300.592 63.2591 298.387 57.6631C297.15 54.7036 296.534 50.446 296.528 45.548C296.549 40.3662 297.188 35.2059 298.432 30.1792C298.501 30.3045 298.599 30.4103 298.719 30.4869C298.838 30.5635 298.975 30.6085 299.116 30.6176Z" fill="black"/>
<path d="M311.297 100.759C310.077 100.19 308.946 99.4436 307.939 98.5435C307.939 97.6781 307.9 96.8127 307.871 96.0339C309.013 97.3736 310.427 98.4497 312.015 99.1896C314.207 100.162 316.582 100.638 318.974 100.586C327.809 100.586 333.508 98.2146 337.122 95.682C337.076 96.3685 337.037 97.0897 336.985 97.8396C333.07 100.268 327.296 102.322 318.974 102.316C316.333 102.371 313.713 101.839 311.297 100.759Z" fill="black"/>
<path d="M337.595 88.1874C337.595 88.2336 337.595 88.2913 337.595 88.3432C336.666 87.9336 335.765 87.524 335.03 87.149C334.614 86.9402 334.211 86.7071 333.822 86.4509C333.663 86.3441 333.514 86.2224 333.377 86.0875C333.301 86.0101 333.232 85.925 333.172 85.8337C333.085 85.6979 333.028 85.5442 333.007 85.3837C332.742 83.2018 332.614 81.0051 332.625 78.8069C332.7 73.882 333.081 68.9667 333.765 64.09L333.987 64.2169L333.884 64.6611V64.7996C333.884 65.0476 333.85 65.4688 333.833 66.0457C333.816 66.6226 333.799 67.3553 333.782 68.186C333.748 69.836 333.713 71.8782 333.685 73.8628C333.622 77.8319 333.571 81.5876 333.571 81.5876C333.57 81.7869 333.636 81.9807 333.758 82.1369C333.88 82.2932 334.052 82.4026 334.244 82.4472L334.454 82.4991C334.506 83.3241 334.58 84.1375 334.677 84.9452L334.728 84.9856C334.988 85.1635 335.258 85.3253 335.537 85.4702C336.107 85.7817 336.888 86.1452 337.709 86.5086C337.68 86.7855 337.646 87.3509 337.595 88.1874Z" fill="black"/>
<path d="M335.287 79.7533C335.287 78.5995 335.321 77.0476 335.35 75.3573C335.401 71.9824 335.464 68.0998 335.521 66.0979C335.521 65.5845 335.549 65.1979 335.567 64.9903L335.812 63.9518C335.86 63.7493 335.834 63.536 335.74 63.3508C335.646 63.1656 335.489 63.0207 335.299 62.9422C334.344 62.5487 333.574 61.8019 333.144 60.8538C332.574 59.7 332.187 58.0039 332.187 55.552C332.187 54.9559 332.209 54.3155 332.255 53.6309C332.523 49.8406 332.66 46.5176 332.66 43.6792C332.683 41.5452 332.569 39.4118 332.318 37.2929C332.185 35.8433 331.799 34.4291 331.178 33.1161C330.85 32.4453 330.321 31.8962 329.667 31.5469C329.296 31.3637 328.889 31.2689 328.476 31.2699C327.943 31.2823 327.419 31.4081 326.937 31.6392C326.378 31.9024 325.852 32.2316 325.37 32.6199C324.021 33.6681 323.026 35.113 322.52 36.7563C322.171 38.0161 321.94 39.3064 321.83 40.6101C321.787 41.1463 321.666 41.6731 321.471 42.1735C321.42 42.3016 321.333 42.4118 321.22 42.4908C321.049 42.5938 320.849 42.6401 320.65 42.6235C320.276 42.613 319.905 42.5549 319.545 42.4504C318.213 42.0508 316.992 41.3438 315.977 40.3851C314.617 39.1405 313.462 37.6836 312.557 36.0698C310.499 32.4872 309.034 27.5316 309.04 21.5202C309.042 20.1114 309.118 18.7036 309.268 17.303C309.287 17.1208 309.249 16.9371 309.159 16.7783C309.068 16.6196 308.931 16.4939 308.765 16.4195C308.6 16.3451 308.415 16.3258 308.238 16.3643C308.061 16.4028 307.901 16.4971 307.78 16.6338C303.124 21.8836 300.73 25.247 299.522 27.2085C299.337 25.9324 299.244 24.6445 299.242 23.3548C299.186 19.766 300.023 16.2207 301.676 13.0454C303.585 9.54357 306.851 6.26673 312.505 4.10909C316.353 2.59431 320.438 1.78932 324.566 1.73223C327.598 1.69529 330.606 2.28418 333.406 3.46295C336.3 4.72573 338.844 6.68666 340.816 9.17435C345.119 14.4992 347.981 23.1759 347.981 36.3987C347.957 41.2217 347.637 46.0385 347.023 50.8214C346.996 51.0474 347.057 51.2752 347.194 51.456C350.14 55.196 352.66 59.26 354.706 63.5711C356.251 67.0325 356.901 69.8709 356.901 72.1901C356.939 73.7719 356.569 75.3366 355.829 76.7303C355.128 77.9732 354.128 79.0169 352.922 79.7649C350.466 81.3571 347.012 82.0725 343.392 82.0725C342.012 82.0693 340.633 81.971 339.266 81.7783L335.276 80.9014C335.276 80.6014 335.282 80.1918 335.287 79.7533Z" fill="black"/>
<path d="M333.548 81.5879C333.548 81.5879 333.599 77.8322 333.662 73.8631C333.691 71.8785 333.725 69.8247 333.759 68.1863C333.759 67.3556 333.793 66.6287 333.81 66.046C333.827 65.4633 333.844 65.0479 333.862 64.7999V64.6614L333.964 64.2172L333.742 64.0903C332.818 63.4878 332.077 62.6394 331.599 61.6384C330.858 60.1615 330.459 58.1769 330.459 55.552C330.459 54.9116 330.459 54.2309 330.533 53.5098C330.795 49.7483 330.932 46.4599 330.932 43.7023C330.932 39.9697 330.675 37.1313 330.168 35.3371C330.02 34.6591 329.733 34.0202 329.325 33.4622C329.209 33.3204 329.065 33.2044 328.903 33.1218C328.765 33.051 328.613 33.0153 328.458 33.018C328.165 33.0291 327.877 33.1039 327.615 33.2372C327.183 33.4438 326.778 33.7013 326.406 34.0045C325.458 34.7361 324.729 35.721 324.303 36.8486C324.026 37.6049 323.835 38.3908 323.733 39.1909C323.648 39.7678 323.591 40.3447 323.517 40.9216C323.471 41.3238 323.401 41.7227 323.306 42.1158C323.178 42.6994 322.894 43.2362 322.485 43.6677C322.247 43.8996 321.963 44.0784 321.653 44.1927C321.322 44.3032 320.975 44.3578 320.627 44.3542C320.106 44.3437 319.589 44.2662 319.088 44.1234C317.51 43.6551 316.061 42.8239 314.853 41.6947C310.789 38.0544 307.363 30.9815 307.358 21.5317C307.358 20.9548 307.358 20.3375 307.398 19.7317C305.26 22.1606 303.278 24.7254 301.464 27.4104C301.094 27.9873 300.82 28.4258 300.604 28.8008C300.45 29.0719 300.324 29.3027 300.233 29.4815C300.142 29.6603 300.056 29.845 300.022 29.9315L299.982 30.0238C299.931 30.1775 299.838 30.3134 299.713 30.4157C299.589 30.518 299.438 30.5825 299.279 30.6018C299.12 30.6211 298.958 30.5944 298.814 30.5248C298.669 30.4552 298.546 30.3455 298.46 30.2084C298.412 30.1381 298.375 30.0601 298.352 29.9776C297.818 27.8118 297.554 25.5869 297.566 23.3547C297.511 19.4739 298.421 15.6415 300.21 12.2089C302.296 8.36665 305.939 4.76674 311.935 2.48795C315.965 0.904465 320.242 0.0624147 324.565 0.00147041C327.829 -0.0348241 331.065 0.601129 334.078 1.87065C338.575 3.81484 342.519 7.41475 345.284 13.0396C348.048 18.6645 349.695 26.3085 349.695 36.3986C349.672 41.1651 349.361 45.9257 348.766 50.6541C351.704 54.4181 354.22 58.5007 356.267 62.8268C357.886 66.4325 358.615 69.5132 358.615 72.1612C358.649 74.0506 358.199 75.9167 357.31 77.5784C355.999 79.8122 353.965 81.5183 351.553 82.4071C348.948 83.3835 346.186 83.8589 343.409 83.809C341.94 83.8059 340.474 83.7019 339.02 83.4975H338.957L334.454 82.4994L334.232 82.4533C334.037 82.4108 333.862 82.3015 333.738 82.1438C333.613 81.9861 333.546 81.7898 333.548 81.5879ZM339.248 81.784C340.615 81.9767 341.994 82.075 343.374 82.0783C346.994 82.0783 350.448 81.3571 352.904 79.7706C354.11 79.0227 355.11 77.979 355.811 76.7361C356.562 75.3355 356.938 73.7601 356.9 72.167C356.9 69.8593 356.25 66.9748 354.705 63.548C352.659 59.2369 350.139 55.1729 347.193 51.4329C347.056 51.2521 346.995 51.0243 347.022 50.7983C347.636 46.0154 347.956 41.1986 347.98 36.3756C347.98 23.1528 345.13 14.453 340.815 9.15124C338.843 6.66356 336.299 4.70263 333.406 3.43985C330.606 2.26107 327.598 1.67219 324.565 1.70912C320.444 1.77264 316.367 2.5815 312.527 4.09752C306.873 6.25516 303.607 9.532 301.698 13.0338C300.045 16.2091 299.208 19.7545 299.264 23.3432C299.266 24.6329 299.359 25.9208 299.543 27.1969C300.752 25.2355 303.146 21.8721 307.802 16.6222C307.924 16.4835 308.086 16.388 308.265 16.3495C308.444 16.3111 308.63 16.3318 308.797 16.4087C308.964 16.4855 309.101 16.6144 309.19 16.7765C309.279 16.9385 309.314 17.1251 309.29 17.3087C309.14 18.7094 309.064 20.1171 309.062 21.5259C309.062 27.5373 310.521 32.4872 312.579 36.0756C313.484 37.6894 314.639 39.1462 315.999 40.3908C317.007 41.3415 318.218 42.0443 319.538 42.4446C319.898 42.5491 320.27 42.6072 320.644 42.6177C320.843 42.6343 321.042 42.588 321.214 42.485C321.326 42.406 321.413 42.2958 321.465 42.1677C321.66 41.6673 321.781 41.1405 321.824 40.6043C321.924 39.3035 322.146 38.0151 322.485 36.7563C322.99 35.1129 323.986 33.6681 325.335 32.6199C325.817 32.2315 326.343 31.9023 326.902 31.6391C327.384 31.4081 327.908 31.2823 328.441 31.2699C328.854 31.2689 329.261 31.3636 329.632 31.5468C330.286 31.8962 330.815 32.4452 331.143 33.116C331.764 34.429 332.15 35.8433 332.283 37.2929C332.534 39.4118 332.648 41.5452 332.625 43.6792C332.625 46.5176 332.488 49.8406 332.22 53.6309C332.174 54.3193 332.152 54.9597 332.152 55.552C332.152 58.0039 332.539 59.7115 333.109 60.8538C333.539 61.8019 334.309 62.5487 335.264 62.9422C335.454 63.0206 335.611 63.1656 335.705 63.3508C335.799 63.536 335.824 63.7492 335.777 63.9518L335.532 64.9902C335.532 65.1979 335.503 65.5671 335.486 66.0979C335.429 68.0998 335.366 71.9824 335.315 75.3573C335.286 77.0476 335.264 78.6111 335.252 79.7533C335.252 80.2149 335.252 80.6014 335.252 80.9072L339.248 81.784Z" fill="black"/>
<path d="M293.2 207.111C293.153 208.217 293.395 209.315 293.901 210.296C294.511 211.288 295.24 212.199 296.073 213.007C297.023 213.951 298.034 214.83 299.099 215.638C299.789 216.163 300.507 216.671 301.225 217.149L293.816 240.191C293.782 240.301 293.771 240.416 293.781 240.53C293.792 240.644 293.824 240.755 293.877 240.856C293.93 240.957 294.002 241.047 294.09 241.12C294.177 241.193 294.278 241.248 294.386 241.282L305.956 245.089C306.156 259.027 306.275 273.387 306.275 287.948C306.275 340.296 304.759 395.253 300.228 442.525C284.229 442.271 271.422 439.992 261.572 436.652C251.558 433.259 244.599 428.777 240.415 424.283C237.622 421.283 236.072 418.294 235.622 415.629C235.548 415.078 235.506 414.523 235.496 413.968C235.496 413.166 235.451 412.133 235.451 410.893C235.451 397.843 237.103 361.855 239.931 319.291C240.444 311.509 241.002 303.501 241.589 295.384C242.159 296.33 242.53 296.838 242.535 296.849C242.606 296.956 242.7 297.045 242.809 297.11C242.918 297.175 243.04 297.214 243.166 297.226C243.293 297.237 243.42 297.219 243.538 297.174C243.657 297.129 243.764 297.057 243.852 296.965C243.852 296.965 244.855 295.921 246.337 294.132C247.792 297.434 249.508 300.611 251.467 303.634L247.044 304.245C246.817 304.277 246.612 304.398 246.474 304.582C246.335 304.767 246.275 304.999 246.306 305.229C246.337 305.458 246.457 305.666 246.639 305.806C246.821 305.946 247.051 306.007 247.278 305.976L253.661 305.093C253.803 305.073 253.936 305.015 254.049 304.926C254.206 304.88 254.36 304.824 254.51 304.759C255.005 304.527 255.46 304.22 255.861 303.847C256.731 302.989 257.452 301.989 257.993 300.888C259.296 298.195 260.281 295.356 260.928 292.43C261.84 288.447 262.51 284.41 262.935 280.344L264.645 271.2C264.674 271.086 264.679 270.967 264.661 270.85C264.643 270.734 264.601 270.622 264.539 270.523C264.476 270.423 264.395 270.337 264.298 270.271C264.202 270.204 264.093 270.158 263.979 270.136C263.865 270.113 263.747 270.115 263.633 270.14C263.519 270.165 263.412 270.214 263.317 270.283C263.223 270.352 263.143 270.439 263.083 270.541C263.023 270.642 262.984 270.754 262.969 270.871L261.669 277.684L258.694 272.129C259.019 270.975 259.298 269.821 259.509 268.667C259.521 268.591 259.521 268.513 259.509 268.437C258.426 256.137 257.013 247.253 255.873 239.66C254.733 232.068 253.872 225.815 253.872 218.644C253.888 215.297 254.078 211.954 254.442 208.629C256.294 190.744 259.002 169.629 259.646 164.633C259.737 163.918 259.788 163.532 259.788 163.532C259.812 163.342 259.774 163.15 259.679 162.986C259.584 162.821 259.438 162.692 259.264 162.62L286.623 94.3602L293.217 126.159L280.108 176.824C280.068 176.975 280.07 177.135 280.113 177.285C280.156 177.436 280.239 177.571 280.353 177.677L298.022 194.471C296.832 195.941 295.841 197.565 295.075 199.3C293.938 201.75 293.3 204.406 293.2 207.111ZM299.282 251.631C298.809 251.63 298.347 251.771 297.953 252.036C297.559 252.301 297.252 252.679 297.071 253.121C296.889 253.563 296.842 254.049 296.934 254.519C297.026 254.988 297.253 255.419 297.587 255.758C297.922 256.096 298.348 256.327 298.812 256.42C299.275 256.513 299.756 256.464 300.193 256.281C300.629 256.097 301.002 255.786 301.264 255.388C301.526 254.99 301.665 254.521 301.664 254.043C301.666 253.725 301.605 253.41 301.486 253.116C301.367 252.822 301.192 252.555 300.971 252.33C300.749 252.105 300.486 251.926 300.196 251.804C299.906 251.682 299.596 251.62 299.282 251.62V251.631ZM296.894 282.375C296.894 282.853 297.034 283.32 297.296 283.718C297.559 284.115 297.932 284.425 298.368 284.608C298.804 284.791 299.284 284.839 299.748 284.746C300.211 284.652 300.637 284.422 300.971 284.084C301.305 283.746 301.532 283.315 301.624 282.846C301.716 282.377 301.669 281.891 301.488 281.45C301.307 281.008 301.001 280.63 300.609 280.365C300.216 280.099 299.754 279.958 299.282 279.958C298.969 279.957 298.659 280.018 298.37 280.139C298.08 280.259 297.817 280.436 297.595 280.66C297.374 280.883 297.198 281.149 297.077 281.441C296.957 281.733 296.894 282.047 296.894 282.363V282.375ZM301.664 315.726C301.665 315.247 301.526 314.779 301.264 314.381C301.002 313.982 300.629 313.672 300.193 313.488C299.756 313.304 299.275 313.256 298.812 313.349C298.348 313.442 297.922 313.672 297.587 314.011C297.253 314.349 297.026 314.78 296.934 315.25C296.842 315.719 296.889 316.206 297.071 316.648C297.252 317.09 297.559 317.467 297.953 317.732C298.347 317.998 298.809 318.138 299.282 318.137C299.596 318.137 299.906 318.075 300.196 317.953C300.486 317.831 300.749 317.652 300.971 317.427C301.192 317.202 301.367 316.935 301.486 316.641C301.605 316.347 301.666 316.032 301.664 315.714V315.726ZM296.215 351.338C296.688 351.34 297.151 351.199 297.544 350.933C297.938 350.668 298.245 350.291 298.426 349.849C298.608 349.407 298.656 348.92 298.564 348.451C298.472 347.982 298.244 347.55 297.91 347.212C297.575 346.874 297.149 346.643 296.686 346.55C296.222 346.457 295.741 346.505 295.305 346.689C294.868 346.873 294.495 347.183 294.233 347.582C293.971 347.98 293.832 348.448 293.833 348.927C293.833 349.566 294.084 350.18 294.531 350.632C294.977 351.084 295.583 351.338 296.215 351.338Z" fill="white"/>
<path d="M296.552 87.0686L294.072 87.6455C294.967 87.3974 295.799 87.2071 296.552 87.0686Z" fill="black"/>
<path d="M284.987 91.7647L285.511 91.4417C285.665 91.3436 285.819 91.2628 285.973 91.1705L286.013 91.3667C285.671 91.4936 285.329 91.6321 284.987 91.7647Z" fill="black"/>
<path d="M241.606 295.378C241.036 303.495 240.466 311.531 239.947 319.285C237.097 361.826 235.467 397.837 235.467 410.887C235.467 412.127 235.467 413.16 235.513 413.962C235.522 414.517 235.564 415.072 235.638 415.623C236.088 418.271 237.639 421.259 240.432 424.277C244.615 428.771 251.574 433.253 261.589 436.646C271.438 439.986 284.245 442.265 300.244 442.519C304.776 395.258 306.292 340.29 306.292 287.942C306.292 273.38 306.172 259.021 305.973 245.083L307.683 245.66C307.882 259.419 307.996 273.588 307.996 287.953C307.996 340.631 306.463 395.962 301.869 443.493C301.848 443.709 301.747 443.908 301.588 444.052C301.429 444.196 301.222 444.275 301.008 444.272C278.984 444.024 262.82 439.974 251.82 434.465C249.911 433.515 248.057 432.456 246.268 431.292C245.641 430.882 245.048 430.473 244.473 430.057C242.565 428.697 240.794 427.151 239.183 425.442C236.219 422.263 234.481 419.004 233.945 415.917C233.86 415.29 233.81 414.658 233.797 414.025C233.797 413.188 233.751 412.139 233.751 410.887C233.751 401.523 234.589 380.634 236.088 354.027C237.12 335.704 238.471 314.676 240.078 292.874C240.688 293.918 241.207 294.761 241.606 295.378Z" fill="black"/>
<path d="M333.753 172.664C333.947 168.528 334.215 163.947 334.585 158.917C336.557 132.079 338.894 94.8221 339.339 87.6338L357.327 95.5605L345.506 133.879C345.471 134 345.461 134.128 345.477 134.254L351.177 178.405L333.753 172.664Z" fill="white"/>
<path d="M358.753 96.7544L347.194 134.213L352.979 178.998L351.178 178.422L345.478 134.271C345.462 134.145 345.472 134.017 345.507 133.896L357.328 95.5775L339.34 87.6508C338.895 94.839 336.558 132.073 334.586 158.934C334.216 163.964 333.948 168.545 333.754 172.681L332.044 172.104C332.082 171.335 332.122 170.566 332.164 169.797C332.342 166.401 332.574 162.732 332.859 158.789C333.953 143.894 335.139 125.767 336.097 111.373C336.421 106.296 336.718 101.687 336.963 97.8447C337.014 97.0948 337.054 96.3736 337.1 95.6871C337.151 94.8967 337.197 94.141 337.242 93.4372C337.379 91.2911 337.487 89.5661 337.561 88.3488C337.561 88.2969 337.561 88.2392 337.561 88.1931C337.613 87.3565 337.647 86.7912 337.664 86.5085V86.3008C337.673 86.1625 337.714 86.0285 337.785 85.9099C337.856 85.7913 337.954 85.6916 338.071 85.6192C338.187 85.5469 338.32 85.5039 338.456 85.494C338.593 85.4841 338.729 85.5076 338.855 85.5624L343.917 87.795L353.082 91.8334L358.662 94.291C358.852 94.3794 359.004 94.5341 359.091 94.7269C359.178 94.9197 359.194 95.1376 359.135 95.341L358.753 96.7544Z" fill="black"/>
<path d="M380.395 207.111C379.608 199.784 378.438 192.505 376.89 185.304C375.801 180.556 374.507 176.252 372.9 173.143C372.826 172.998 372.713 172.877 372.573 172.796C372.434 172.714 372.274 172.674 372.113 172.681L369.947 103.452V103.36C374.741 105.443 379.734 109.706 384.658 115.89C389.708 122.236 394.695 130.573 399.392 140.582C405.793 154.226 411.658 170.974 416.491 189.971C416.361 190.09 416.27 190.247 416.23 190.42C416.19 190.594 416.204 190.775 416.269 190.94L380.395 207.111Z" fill="white"/>
<path d="M422.373 208.202C423 211.31 423.599 214.461 424.169 217.658C424.207 217.863 424.17 218.076 424.066 218.256C423.961 218.436 423.795 218.572 423.599 218.638L423.103 218.788C423.103 218.575 423.103 218.361 423.103 218.148C423.086 214.82 422.842 211.496 422.373 208.202Z" fill="black"/>
<path d="M417.847 190.271C417.804 190.163 417.74 190.065 417.659 189.983C417.578 189.901 417.482 189.836 417.375 189.791C417.269 189.747 417.155 189.725 417.041 189.726C416.926 189.728 416.812 189.752 416.707 189.798C416.616 189.837 416.533 189.891 416.462 189.96C411.646 170.962 405.781 154.191 399.363 140.57C394.666 130.561 389.673 122.219 384.629 115.879C379.704 109.694 374.711 105.431 369.918 103.348C369.798 103.296 369.684 103.239 369.565 103.193C369.354 103.105 369.187 102.937 369.099 102.725C369.012 102.513 369.011 102.274 369.097 102.062C369.183 101.849 369.349 101.68 369.559 101.591C369.768 101.502 370.004 101.502 370.214 101.589L370.288 101.623C375.561 103.833 380.821 108.344 385.963 114.794C393.703 124.515 401.181 138.667 407.758 156.176C412.485 168.93 416.405 181.975 419.494 195.233C418.559 192.14 417.813 190.294 417.784 190.271H417.847Z" fill="black"/>
<path d="M375.02 184.831C373.999 180.51 372.78 176.633 371.4 173.944C371.3 173.742 371.282 173.508 371.35 173.292C371.418 173.076 371.567 172.896 371.765 172.791C371.878 172.73 372.003 172.699 372.13 172.698C372.291 172.691 372.451 172.731 372.59 172.813C372.729 172.894 372.843 173.015 372.916 173.16C374.507 176.269 375.801 180.573 376.906 185.321C378.449 192.517 379.613 199.79 380.395 207.111H380.355C380.302 206.986 380.22 206.877 380.115 206.794C379.621 206.394 379.086 206.05 378.519 205.767C378.246 203.459 377.949 201.007 377.55 198.451C376.883 193.934 376.063 189.152 375.02 184.831Z" fill="black"/>
<path d="M316.99 196.726C315.705 195.378 314.244 194.213 312.647 193.265C312.077 192.959 311.536 192.642 311 192.325L318.364 169.416L370.231 186.498L364.954 202.928C361.192 202.634 357.111 202.513 353.024 202.513C339.077 202.513 325.198 203.851 325.187 203.851C325.063 203.863 324.943 203.903 324.836 203.966C324.728 204.03 324.636 204.117 324.565 204.221C324.565 204.221 324.354 204.532 324.024 205.097C323.682 204.63 323.289 204.099 322.85 203.528C321.046 201.134 319.088 198.862 316.99 196.726Z" fill="white"/>
<path d="M295.696 239.891L302.718 218.073C303.705 218.673 304.725 219.217 305.773 219.7C307.197 220.256 308.676 220.655 310.185 220.888C311.929 221.2 313.861 221.465 315.674 221.65C316.637 221.753 317.56 221.84 318.398 221.915C318.307 222.4 318.216 222.896 318.13 223.409C318.112 223.521 318.115 223.636 318.141 223.747C318.166 223.858 318.213 223.963 318.278 224.055C325.226 233.961 336.335 240.93 348.612 245.441C349.41 245.737 350.214 246.02 351.023 246.289L347.604 256.962L295.696 239.891Z" fill="white"/>
<path d="M308.896 246.053L307.688 245.655L305.978 245.078L294.373 241.259C294.265 241.225 294.165 241.17 294.077 241.097C293.99 241.024 293.918 240.935 293.865 240.833C293.812 240.732 293.779 240.621 293.769 240.507C293.758 240.393 293.77 240.278 293.804 240.169L301.213 217.127C301.715 217.461 302.211 217.779 302.706 218.073L295.696 239.892L347.563 256.974L350.983 246.301C351.525 246.486 352.066 246.659 352.613 246.832L348.914 258.33C348.882 258.44 348.828 258.542 348.756 258.631C348.684 258.719 348.595 258.793 348.495 258.846C348.395 258.9 348.285 258.933 348.172 258.943C348.059 258.954 347.945 258.941 347.837 258.907L321.248 250.149L319.589 249.601L308.896 246.053Z" fill="black"/>
<path d="M318.364 169.422L311 192.331C310.493 192.031 309.986 191.754 309.473 191.477L317.002 168.061C317.034 167.95 317.087 167.847 317.159 167.758C317.231 167.669 317.32 167.595 317.42 167.542C317.521 167.488 317.631 167.455 317.744 167.445C317.857 167.435 317.971 167.448 318.079 167.484L331.873 172.024L332.067 172.087L333.776 172.664L351.201 178.405L353.002 178.981L371.611 185.108C371.72 185.14 371.822 185.195 371.91 185.267C371.998 185.34 372.071 185.43 372.124 185.531C372.177 185.633 372.21 185.745 372.219 185.859C372.229 185.974 372.216 186.089 372.181 186.199L366.71 203.073L364.965 202.917L370.243 186.487L318.364 169.422Z" fill="black"/>
<path d="M261.173 280.535C261.173 280.794 261.105 281.169 261.042 281.648C260.928 282.6 260.751 283.956 260.506 285.502C259.977 289.068 259.186 292.589 258.141 296.036C257.567 298.039 256.688 299.938 255.536 301.667C255.1 302.307 254.512 302.827 253.826 303.178C253.657 303.249 253.482 303.301 253.302 303.334C251.155 300.085 249.296 296.65 247.745 293.071C247.688 292.927 247.636 292.788 247.585 292.65C248.531 291.444 249.591 290.025 250.686 288.427C253.71 284.107 256.161 279.403 257.976 274.437L261.185 280.379C261.179 280.442 261.179 280.483 261.173 280.535Z" fill="white"/>
<path d="M261.225 280.056C261.196 280.17 261.19 280.289 261.208 280.406C261.227 280.522 261.268 280.634 261.33 280.733C261.393 280.833 261.475 280.919 261.571 280.985C261.667 281.052 261.776 281.098 261.89 281.12C262.005 281.142 262.122 281.141 262.236 281.116C262.35 281.09 262.457 281.042 262.552 280.973C262.647 280.904 262.726 280.816 262.786 280.715C262.846 280.614 262.885 280.502 262.9 280.385V280.344C262.487 284.41 261.829 288.446 260.928 292.43C260.299 295.354 259.333 298.193 258.05 300.888C257.509 301.989 256.788 302.989 255.918 303.847C255.517 304.22 255.061 304.528 254.567 304.759C254.417 304.824 254.263 304.88 254.106 304.926C254.23 304.836 254.328 304.713 254.388 304.571C254.448 304.428 254.469 304.272 254.448 304.119C254.433 304.006 254.396 303.897 254.34 303.799C254.283 303.7 254.208 303.614 254.118 303.546C254.029 303.477 253.927 303.427 253.818 303.399C253.709 303.37 253.596 303.364 253.484 303.38L251.524 303.651C249.564 300.629 247.849 297.451 246.394 294.15C246.774 293.688 247.184 293.18 247.625 292.627C247.676 292.765 247.728 292.904 247.785 293.048C249.342 296.636 251.209 300.078 253.365 303.334C253.544 303.301 253.72 303.249 253.889 303.178C254.575 302.827 255.162 302.307 255.599 301.667C256.751 299.938 257.63 298.039 258.204 296.036C259.249 292.589 260.04 289.068 260.569 285.502C260.814 283.944 260.991 282.617 261.105 281.648C261.168 281.169 261.208 280.794 261.236 280.535C261.236 280.483 261.236 280.442 261.236 280.402L258.027 274.414C258.289 273.658 258.529 272.896 258.751 272.106L261.726 277.662L261.225 280.056Z" fill="black"/>
<path d="M259.042 162.54C258.819 162.509 258.593 162.568 258.413 162.704C258.233 162.84 258.113 163.042 258.079 163.267C258.079 163.267 254.847 187.942 252.721 208.41C252.354 211.796 252.164 215.199 252.151 218.604C252.151 225.897 253.029 232.283 254.174 239.881C255.32 247.479 256.711 256.253 257.782 268.426C256.534 275.274 252.955 281.914 249.581 286.922C247.681 289.74 245.598 292.427 243.345 294.964C243.203 294.745 243.043 294.485 242.855 294.185C242.165 293.078 241.145 291.439 239.976 289.339C236.768 283.632 233.869 277.752 231.29 271.726C224.929 256.952 218.58 236.84 218.585 215.529C218.571 209.531 219.105 203.544 220.181 197.645C223.596 179.352 229.613 161.657 238.044 145.112C246.155 129.253 256.038 115.638 266.543 106.009C273.029 100.055 279.743 95.6248 286.395 93.1152L286.657 94.3729L259.299 162.633C259.218 162.589 259.132 162.558 259.042 162.54Z" fill="white"/>
<path d="M286.366 93.0802C279.715 95.6013 273 100.003 266.514 105.974C256.015 115.603 246.132 129.218 238.015 145.077C229.584 161.622 223.567 179.317 220.152 197.61C219.076 203.509 218.542 209.496 218.557 215.494C218.557 236.805 224.9 256.916 231.261 271.691C233.856 277.728 236.772 283.617 239.999 289.333C241.19 291.433 242.188 293.071 242.877 294.179C243.065 294.479 243.225 294.756 243.367 294.958C245.62 292.42 247.703 289.734 249.603 286.916C252.977 281.908 256.557 275.268 257.805 268.42C256.733 256.247 255.331 247.449 254.197 239.875C253.063 232.3 252.174 225.89 252.174 218.598C252.186 215.192 252.377 211.79 252.744 208.404C254.852 187.959 258.078 163.267 258.078 163.267C258.108 163.04 258.226 162.834 258.405 162.694C258.585 162.555 258.812 162.493 259.036 162.523C259.108 162.533 259.179 162.552 259.247 162.58C259.421 162.653 259.567 162.781 259.662 162.946C259.757 163.111 259.795 163.303 259.771 163.492C259.771 163.492 259.72 163.878 259.629 164.594C258.985 169.59 256.277 190.71 254.425 208.589C254.061 211.915 253.871 215.258 253.855 218.604C253.855 225.752 254.716 232.029 255.856 239.621C256.995 247.213 258.409 256.097 259.492 268.397C259.503 268.473 259.503 268.551 259.492 268.628C259.281 269.782 259.002 270.935 258.677 272.089C258.455 272.856 258.215 273.618 257.953 274.397C256.142 279.369 253.693 284.078 250.669 288.404C249.574 290.002 248.514 291.421 247.568 292.627C247.131 293.181 246.721 293.689 246.337 294.15C244.855 295.939 243.863 296.971 243.852 296.983C243.764 297.075 243.657 297.147 243.538 297.192C243.42 297.237 243.293 297.255 243.166 297.243C243.04 297.232 242.918 297.193 242.809 297.128C242.7 297.063 242.606 296.974 242.535 296.867C242.535 296.867 242.188 296.348 241.589 295.402C241.19 294.762 240.671 293.919 240.062 292.892C236.17 286.297 232.703 279.454 229.682 272.406C223.265 257.488 216.835 237.175 216.835 215.517C216.827 209.408 217.377 203.311 218.477 197.304C223.088 172.284 232.897 148.192 245.265 129.097C251.444 119.543 258.255 111.241 265.386 104.699C271.741 98.8723 278.352 94.4359 285.004 91.7764C285.346 91.6437 285.688 91.5052 286.03 91.3783L286.366 93.0802Z" fill="black"/>
<path d="M305.386 190.26C304.526 190.266 303.675 190.436 302.878 190.762C301.894 191.17 300.973 191.717 300.142 192.389C299.829 192.637 299.521 192.908 299.224 193.191L281.926 176.743L294.932 126.379C294.964 126.248 294.964 126.112 294.932 125.981L287.66 90.9105L305.648 86.7279C305.705 87.149 305.756 87.7086 305.808 88.3836C305.91 89.7336 306.001 91.5451 306.081 93.7258C306.241 98.0757 306.355 103.874 306.44 110.347C306.617 123.292 306.691 138.932 306.816 151.14C306.896 159.28 306.999 165.891 307.17 169.197C307.375 173.057 307.443 177.568 307.443 181.999C307.443 184.952 307.415 187.877 307.369 190.548C306.725 190.356 306.057 190.259 305.386 190.26Z" fill="white"/>
<path d="M307.284 86.0823C307.33 86.3592 307.375 86.6938 307.415 87.0746C307.455 87.4554 307.483 87.7727 307.512 88.1823C307.66 90.0457 307.774 92.7398 307.871 96.034C307.9 96.8359 307.922 97.6782 307.939 98.5435C307.991 100.459 308.031 102.53 308.071 104.722C308.264 115.637 308.35 129.529 308.447 141.783C308.544 154.036 308.658 164.709 308.886 169.123C309.091 173.028 309.159 177.563 309.159 182.016C309.159 185.23 309.125 188.403 309.074 191.247C308.525 190.965 307.953 190.731 307.364 190.549C307.409 187.878 307.438 184.953 307.438 181.999C307.438 177.568 307.369 173.057 307.164 169.198C306.993 165.892 306.891 159.28 306.811 151.14C306.686 138.933 306.611 123.293 306.435 110.347C306.349 103.874 306.235 98.0763 306.076 93.7264C305.996 91.5456 305.905 89.7341 305.802 88.3842C305.751 87.7092 305.699 87.1496 305.642 86.7285L287.654 90.911L294.927 125.981C294.958 126.112 294.958 126.249 294.927 126.379L281.92 176.743L299.219 193.191C298.815 193.587 298.434 194.007 298.079 194.449L280.41 177.655C280.296 177.549 280.213 177.413 280.17 177.263C280.126 177.112 280.125 176.953 280.165 176.801L293.274 126.137L286.679 94.3379L286.417 93.0802L286.064 91.3495L286.024 91.1533L285.87 90.4207C285.829 90.2095 285.866 89.9902 285.976 89.8056C286.085 89.6211 286.259 89.4845 286.463 89.4226L294.072 87.6515L296.551 87.0746L306.121 84.8477C306.314 84.8032 306.516 84.8285 306.692 84.9192C306.868 85.0098 307.007 85.1601 307.084 85.3439C307.086 85.3592 307.086 85.3747 307.084 85.39C307.174 85.6135 307.24 85.8454 307.284 86.0823Z" fill="black"/>
<path d="M261.903 281.072C261.792 281.051 261.686 281.008 261.592 280.946C261.498 280.883 261.417 280.802 261.353 280.708C261.29 280.613 261.246 280.507 261.224 280.395C261.202 280.283 261.202 280.168 261.225 280.056L261.675 277.685L262.974 270.872C262.99 270.755 263.029 270.643 263.088 270.541C263.148 270.44 263.228 270.352 263.323 270.284C263.417 270.215 263.525 270.166 263.639 270.141C263.752 270.116 263.87 270.114 263.985 270.137C264.099 270.159 264.208 270.205 264.304 270.271C264.4 270.338 264.482 270.424 264.544 270.523C264.607 270.623 264.648 270.734 264.666 270.851C264.684 270.967 264.679 271.086 264.65 271.201L262.94 280.345V280.385C262.92 280.501 262.877 280.611 262.813 280.71C262.749 280.808 262.666 280.892 262.568 280.956C262.471 281.02 262.362 281.064 262.247 281.084C262.133 281.104 262.016 281.099 261.903 281.072Z" fill="black"/>
<path d="M253.461 303.38C253.572 303.364 253.686 303.37 253.795 303.398C253.903 303.427 254.006 303.477 254.095 303.546C254.185 303.614 254.26 303.7 254.317 303.799C254.373 303.897 254.41 304.006 254.424 304.118C254.446 304.272 254.425 304.428 254.365 304.571C254.305 304.713 254.207 304.836 254.082 304.926C253.97 305.015 253.836 305.073 253.695 305.093L247.311 305.976C247.084 306.007 246.855 305.946 246.672 305.806C246.49 305.666 246.37 305.459 246.339 305.229C246.308 305 246.369 304.767 246.507 304.582C246.646 304.398 246.851 304.277 247.077 304.245L251.5 303.634L253.461 303.38Z" fill="black"/>
<path d="M299.282 253.351C299.416 253.351 299.547 253.391 299.659 253.467C299.771 253.543 299.858 253.65 299.909 253.776C299.96 253.902 299.973 254.04 299.947 254.174C299.92 254.307 299.855 254.429 299.759 254.525C299.664 254.621 299.542 254.686 299.411 254.712C299.279 254.737 299.142 254.723 299.018 254.67C298.894 254.617 298.789 254.528 298.715 254.415C298.641 254.301 298.602 254.168 298.603 254.032C298.603 253.942 298.621 253.853 298.655 253.77C298.689 253.687 298.739 253.612 298.802 253.548C298.866 253.485 298.94 253.435 299.023 253.401C299.105 253.367 299.193 253.35 299.282 253.351Z" fill="black"/>
<path d="M299.282 256.449C298.809 256.45 298.347 256.31 297.953 256.045C297.56 255.78 297.253 255.403 297.071 254.961C296.889 254.52 296.841 254.033 296.933 253.564C297.024 253.095 297.251 252.664 297.585 252.325C297.919 251.986 298.344 251.755 298.808 251.662C299.271 251.568 299.752 251.616 300.188 251.798C300.625 251.981 300.999 252.291 301.261 252.689C301.524 253.086 301.664 253.554 301.664 254.032C301.664 254.672 301.413 255.286 300.967 255.739C300.52 256.192 299.914 256.448 299.282 256.449ZM299.282 254.719C299.416 254.719 299.547 254.678 299.658 254.603C299.77 254.528 299.857 254.42 299.908 254.295C299.96 254.169 299.973 254.031 299.947 253.898C299.921 253.765 299.856 253.643 299.761 253.547C299.666 253.451 299.545 253.385 299.414 253.359C299.282 253.332 299.146 253.346 299.022 253.398C298.898 253.45 298.792 253.538 298.718 253.651C298.643 253.764 298.603 253.896 298.603 254.032C298.603 254.122 298.62 254.212 298.653 254.296C298.687 254.379 298.737 254.455 298.8 254.519C298.863 254.583 298.938 254.634 299.021 254.668C299.104 254.702 299.192 254.719 299.282 254.719Z" fill="black"/>
<path d="M299.282 281.678C299.416 281.678 299.547 281.718 299.659 281.793C299.77 281.869 299.857 281.976 299.908 282.101C299.96 282.227 299.973 282.365 299.947 282.498C299.921 282.631 299.856 282.754 299.761 282.85C299.666 282.946 299.546 283.011 299.414 283.037C299.282 283.064 299.146 283.05 299.022 282.998C298.898 282.946 298.792 282.858 298.718 282.746C298.643 282.633 298.603 282.5 298.603 282.364C298.603 282.274 298.62 282.184 298.654 282.101C298.687 282.017 298.737 281.941 298.8 281.877C298.864 281.813 298.939 281.763 299.021 281.728C299.104 281.694 299.192 281.677 299.282 281.678Z" fill="black"/>
<path d="M299.282 279.946C299.754 279.946 300.216 280.088 300.609 280.353C301.001 280.619 301.307 280.997 301.488 281.438C301.669 281.88 301.716 282.366 301.624 282.835C301.532 283.304 301.304 283.734 300.97 284.073C300.636 284.411 300.211 284.641 299.748 284.734C299.284 284.827 298.804 284.78 298.368 284.597C297.931 284.414 297.558 284.104 297.296 283.706C297.034 283.309 296.894 282.841 296.894 282.363C296.893 282.046 296.954 281.731 297.074 281.437C297.194 281.144 297.369 280.877 297.591 280.652C297.813 280.428 298.077 280.25 298.367 280.129C298.657 280.007 298.968 279.945 299.282 279.946ZM299.282 283.044C299.416 283.044 299.547 283.004 299.659 282.928C299.771 282.852 299.858 282.745 299.909 282.619C299.96 282.493 299.973 282.355 299.947 282.221C299.92 282.088 299.855 281.966 299.759 281.87C299.664 281.774 299.542 281.709 299.411 281.684C299.279 281.658 299.142 281.672 299.018 281.725C298.894 281.778 298.789 281.867 298.715 281.98C298.641 282.094 298.602 282.227 298.603 282.363C298.603 282.453 298.621 282.542 298.655 282.625C298.689 282.708 298.739 282.783 298.802 282.847C298.866 282.91 298.94 282.96 299.023 282.994C299.105 283.028 299.193 283.045 299.282 283.044Z" fill="black"/>
<path d="M299.282 315.028C299.416 315.028 299.547 315.069 299.659 315.144C299.77 315.219 299.857 315.327 299.908 315.452C299.96 315.578 299.973 315.716 299.947 315.849C299.921 315.982 299.856 316.104 299.761 316.2C299.666 316.296 299.546 316.362 299.414 316.388C299.282 316.415 299.146 316.401 299.022 316.349C298.898 316.297 298.792 316.209 298.718 316.096C298.643 315.983 298.603 315.851 298.603 315.715C298.603 315.624 298.62 315.535 298.654 315.451C298.687 315.368 298.737 315.292 298.8 315.228C298.864 315.164 298.939 315.113 299.021 315.079C299.104 315.045 299.192 315.028 299.282 315.028Z" fill="black"/>
<path d="M296.894 315.715C296.892 315.237 297.032 314.769 297.293 314.37C297.555 313.972 297.928 313.661 298.364 313.478C298.8 313.294 299.281 313.245 299.744 313.338C300.208 313.43 300.634 313.66 300.968 313.998C301.303 314.336 301.531 314.766 301.624 315.235C301.716 315.704 301.669 316.191 301.489 316.633C301.308 317.075 301.002 317.453 300.609 317.719C300.216 317.984 299.754 318.126 299.282 318.126C298.968 318.127 298.658 318.065 298.368 317.944C298.079 317.824 297.815 317.646 297.593 317.422C297.372 317.198 297.196 316.932 297.075 316.639C296.955 316.346 296.894 316.032 296.894 315.715ZM299.282 316.396C299.416 316.396 299.547 316.355 299.659 316.28C299.771 316.204 299.858 316.096 299.909 315.97C299.96 315.845 299.973 315.706 299.947 315.573C299.92 315.44 299.855 315.317 299.759 315.222C299.664 315.126 299.542 315.061 299.411 315.035C299.279 315.009 299.142 315.024 299.018 315.077C298.894 315.129 298.789 315.218 298.715 315.332C298.641 315.446 298.602 315.579 298.603 315.715C298.603 315.805 298.621 315.894 298.655 315.977C298.689 316.06 298.739 316.135 298.802 316.198C298.866 316.262 298.94 316.312 299.023 316.346C299.105 316.379 299.193 316.396 299.282 316.396Z" fill="black"/>
<path d="M296.215 348.218C296.35 348.217 296.482 348.256 296.594 348.331C296.706 348.406 296.794 348.512 296.846 348.638C296.898 348.763 296.913 348.901 296.887 349.035C296.862 349.168 296.797 349.291 296.703 349.388C296.608 349.485 296.487 349.55 296.356 349.577C296.224 349.604 296.087 349.591 295.963 349.539C295.839 349.488 295.732 349.4 295.658 349.287C295.583 349.174 295.543 349.041 295.543 348.905C295.543 348.723 295.614 348.55 295.74 348.421C295.866 348.293 296.037 348.22 296.215 348.218Z" fill="black"/>
<path d="M296.215 346.487C296.688 346.486 297.15 346.627 297.544 346.891C297.937 347.156 298.244 347.534 298.426 347.975C298.608 348.417 298.656 348.903 298.564 349.372C298.473 349.842 298.246 350.273 297.912 350.611C297.578 350.95 297.153 351.181 296.689 351.275C296.226 351.368 295.745 351.321 295.309 351.138C294.872 350.955 294.499 350.645 294.236 350.248C293.973 349.85 293.833 349.383 293.833 348.904C293.833 348.264 294.084 347.65 294.53 347.197C294.977 346.744 295.583 346.488 296.215 346.487ZM296.215 349.585C296.35 349.586 296.482 349.547 296.594 349.472C296.707 349.397 296.795 349.289 296.847 349.164C296.899 349.038 296.913 348.9 296.887 348.766C296.861 348.632 296.796 348.509 296.701 348.413C296.606 348.317 296.484 348.251 296.352 348.225C296.22 348.199 296.083 348.213 295.959 348.265C295.835 348.318 295.729 348.407 295.655 348.521C295.581 348.634 295.542 348.768 295.543 348.904C295.54 348.996 295.555 349.086 295.587 349.172C295.62 349.257 295.669 349.335 295.732 349.401C295.794 349.466 295.87 349.518 295.953 349.554C296.036 349.59 296.125 349.608 296.215 349.608V349.585Z" fill="black"/>
<path d="M357.356 274.766C357.581 274.766 357.796 274.856 357.955 275.016C358.114 275.176 358.204 275.393 358.206 275.62C358.212 275.713 358.225 275.806 358.246 275.897C358.539 277.125 358.902 278.335 359.334 279.52C361.135 284.654 365.08 293.545 371.23 300.364C371.352 300.536 371.407 300.749 371.385 300.96C371.362 301.171 371.264 301.367 371.108 301.509C370.953 301.652 370.751 301.732 370.541 301.733C370.331 301.734 370.128 301.658 369.97 301.517C365.382 296.429 362.036 290.337 359.824 285.364C358.889 283.278 358.061 281.145 357.345 278.972C357.066 278.13 356.861 277.426 356.724 276.878C356.65 276.606 356.598 276.37 356.559 276.174C356.521 275.995 356.5 275.814 356.496 275.631C356.496 275.517 356.518 275.404 356.561 275.299C356.605 275.194 356.668 275.098 356.748 275.018C356.828 274.937 356.923 274.873 357.028 274.83C357.132 274.787 357.244 274.765 357.356 274.766Z" fill="black"/>
<path d="M312.3 70.9041L312.448 69.1733L315.298 69.3522C314.927 69.5887 314.506 69.831 314.067 70.0618C313.457 70.3848 312.83 70.6618 312.3 70.9041Z" fill="black"/>
<path d="M311.718 67.3731H311.883L317.355 67.7193C317.48 67.7275 317.601 67.7632 317.71 67.8238C317.819 67.8844 317.914 67.9685 317.988 68.0702C318.062 68.1719 318.113 68.2887 318.138 68.4125C318.162 68.5362 318.16 68.6639 318.13 68.7865C318.029 69.1502 317.832 69.4792 317.56 69.7384C317.078 70.2063 316.54 70.6113 315.959 70.9442C315.036 71.4896 314.085 71.9826 313.109 72.4211C312.71 72.6057 312.362 72.7557 312.106 72.8653L311.638 73.0672C311.503 73.1214 311.355 73.1398 311.211 73.1207C311.066 73.1016 310.929 73.0456 310.811 72.9579C310.694 72.8702 310.6 72.7538 310.54 72.6195C310.479 72.4852 310.453 72.3375 310.464 72.1903L310.726 69.0115L310.795 68.175C310.812 67.9448 310.919 67.731 311.092 67.5806C311.266 67.4302 311.491 67.3556 311.718 67.3731ZM315.298 69.3288L312.448 69.15L312.299 70.8807C312.83 70.6384 313.439 70.3384 314.066 70.0154C314.505 69.8077 314.927 69.5654 315.298 69.3288Z" fill="black"/>
<path d="M310.487 219.193C309.113 218.987 307.766 218.629 306.469 218.126C303.086 216.529 299.983 214.386 297.281 211.78C296.549 211.076 295.907 210.281 295.372 209.414C295.027 208.697 294.868 207.903 294.91 207.107C295.019 204.641 295.616 202.222 296.666 199.993C297.777 197.501 299.379 195.165 301.18 193.768C301.883 193.198 302.662 192.73 303.494 192.378C304.093 192.132 304.733 192.003 305.38 191.997C306.436 192.04 307.467 192.335 308.39 192.857C309.439 193.388 310.561 194.115 311.844 194.807C313.193 195.603 314.434 196.573 315.537 197.691C316.874 199.012 318.141 200.402 319.333 201.857C320.924 203.772 322.292 205.607 323.146 206.795C321.135 211.064 319.655 215.57 318.741 220.208H318.399C316.028 219.977 313.012 219.654 310.487 219.193Z" fill="white"/>
<path d="M310.185 220.9C308.676 220.666 307.197 220.268 305.773 219.711C304.725 219.228 303.705 218.685 302.718 218.085C302.222 217.79 301.727 217.473 301.225 217.138C300.507 216.66 299.789 216.152 299.099 215.627C298.034 214.819 297.023 213.94 296.072 212.996C295.24 212.188 294.51 211.277 293.901 210.285C293.394 209.304 293.153 208.206 293.2 207.1C293.315 204.388 293.97 201.727 295.126 199.277C295.892 197.542 296.883 195.918 298.073 194.449C298.428 194.007 298.809 193.587 299.213 193.191C299.509 192.908 299.817 192.614 300.131 192.389C300.962 191.718 301.883 191.17 302.867 190.762C303.664 190.437 304.515 190.267 305.374 190.26C306.051 190.263 306.723 190.366 307.369 190.566C307.958 190.749 308.53 190.982 309.079 191.264L309.159 191.304C309.267 191.356 309.376 191.42 309.478 191.478C309.991 191.743 310.498 192.054 311.006 192.331C311.513 192.608 312.089 192.966 312.653 193.272C314.25 194.22 315.711 195.385 316.996 196.733C319.099 198.873 321.06 201.151 322.867 203.552C323.306 204.129 323.699 204.654 324.041 205.121C323.807 205.537 323.471 206.102 323.152 206.818C322.297 205.629 320.929 203.795 319.339 201.879C318.146 200.425 316.879 199.034 315.543 197.714C314.44 196.595 313.198 195.626 311.849 194.829C310.567 194.137 309.444 193.41 308.395 192.879C307.473 192.357 306.442 192.063 305.386 192.02C304.739 192.025 304.099 192.154 303.499 192.401C302.668 192.753 301.889 193.221 301.185 193.791C299.384 195.187 297.765 197.524 296.671 200.016C295.622 202.238 295.023 204.651 294.91 207.112C294.867 207.908 295.026 208.702 295.371 209.419C295.907 210.286 296.548 211.081 297.281 211.785C299.983 214.391 303.086 216.534 306.469 218.131C307.766 218.634 309.113 218.992 310.487 219.198C313.012 219.66 316.027 219.983 318.398 220.19H318.74C318.621 220.767 318.507 221.344 318.398 221.921C317.56 221.846 316.637 221.759 315.674 221.656C313.861 221.465 311.929 221.211 310.185 220.9Z" fill="black"/>
<path d="M416.275 190.958L416.314 191.062C416.349 191.155 416.406 191.293 416.474 191.478C416.611 191.847 416.81 192.395 417.044 193.105C417.523 194.512 418.184 196.566 418.805 199.047C420.444 205.279 421.305 211.694 421.37 218.142C421.37 226.121 419.837 234.636 415.163 241.975C414.17 243.407 412.858 244.583 411.333 245.407C409.294 246.568 407.118 247.463 404.858 248.072C399.768 249.526 393.276 250.311 386.117 250.311C373.539 250.281 361.056 248.092 349.2 243.838C337.231 239.453 326.555 232.709 319.881 223.358C321.727 212.702 324.931 206.933 325.769 205.554H325.974L327.729 205.381C329.245 205.254 331.406 205.093 333.999 204.925C339.191 204.591 346.117 204.256 353.036 204.256C357.265 204.256 361.489 204.383 365.313 204.706C368.633 204.919 371.925 205.462 375.14 206.327C376.542 206.685 377.864 207.307 379.038 208.162C379.186 208.288 379.372 208.359 379.566 208.364C379.759 208.368 379.948 208.306 380.102 208.187C380.256 208.068 380.364 207.899 380.41 207.709C380.456 207.519 380.437 207.318 380.355 207.141H380.395L416.275 190.958Z" fill="white"/>
<path d="M382.577 251.96C372.421 251.61 362.358 249.885 352.654 246.832C352.084 246.659 351.565 246.486 351.024 246.301C350.214 246.028 349.411 245.745 348.613 245.453C336.335 240.941 325.244 233.972 318.279 224.067C318.213 223.974 318.166 223.87 318.141 223.759C318.116 223.648 318.112 223.533 318.13 223.421C318.216 222.907 318.307 222.411 318.398 221.927C318.507 221.35 318.621 220.773 318.74 220.196C319.655 215.557 321.135 211.052 323.146 206.783C323.494 206.067 323.802 205.502 324.035 205.087C324.366 204.51 324.565 204.227 324.577 204.21C324.648 204.106 324.74 204.019 324.847 203.956C324.954 203.892 325.074 203.853 325.198 203.841C325.198 203.841 339.088 202.496 353.036 202.496C357.122 202.496 361.203 202.617 364.965 202.912L366.709 203.067C367.558 203.154 368.419 203.246 369.2 203.35C371.371 203.611 373.518 204.041 375.624 204.637C376.621 204.932 377.59 205.318 378.519 205.79C379.086 206.074 379.621 206.418 380.115 206.817C380.22 206.901 380.302 207.01 380.354 207.135C380.436 207.312 380.456 207.513 380.41 207.703C380.364 207.893 380.255 208.062 380.101 208.181C379.948 208.3 379.759 208.362 379.565 208.358C379.372 208.353 379.186 208.282 379.038 208.156C377.864 207.301 376.541 206.679 375.139 206.321C371.924 205.456 368.633 204.913 365.313 204.7C361.488 204.377 357.265 204.25 353.036 204.25C346.116 204.25 339.191 204.585 333.998 204.919C331.405 205.087 329.245 205.248 327.729 205.375L325.973 205.525H325.768C324.93 206.904 321.727 212.673 319.88 223.328C326.555 232.68 337.253 239.424 349.2 243.809C361.055 248.063 373.538 250.252 386.117 250.282C393.276 250.282 399.768 249.497 404.858 248.043C407.121 247.44 409.3 246.551 411.344 245.395C412.869 244.571 414.181 243.395 415.174 241.963C419.848 234.624 421.381 226.109 421.381 218.131C421.314 211.682 420.451 205.267 418.81 199.035C418.172 196.537 417.528 194.5 417.049 193.093C416.81 192.383 416.61 191.835 416.479 191.466C416.411 191.281 416.354 191.143 416.32 191.05L416.28 190.947C416.215 190.781 416.201 190.6 416.241 190.427C416.28 190.253 416.372 190.097 416.502 189.977C416.574 189.909 416.657 189.855 416.747 189.816C416.852 189.77 416.966 189.745 417.081 189.744C417.196 189.743 417.309 189.765 417.416 189.809C417.522 189.853 417.618 189.918 417.699 190.001C417.78 190.083 417.844 190.181 417.887 190.289C417.887 190.289 418.639 192.158 419.597 195.25C420.871 199.494 421.823 203.829 422.447 208.219C422.912 211.514 423.152 214.837 423.165 218.165C423.165 218.379 423.165 218.592 423.165 218.806C423.085 226.819 421.455 235.415 416.696 242.938C415.557 244.598 414.047 245.964 412.29 246.924C409.44 248.614 405.633 249.884 401.193 250.743C396.247 251.649 391.228 252.085 386.202 252.047C385.598 252.047 384.988 252.047 384.373 252.047C383.757 252.047 383.153 251.984 382.577 251.96Z" fill="black"/>
<path d="M152.199 165.968C145.501 165.889 140.135 160.329 140.213 153.549C140.291 146.769 145.785 141.337 152.483 141.417C159.181 141.496 164.548 147.056 164.469 153.836C164.391 160.616 158.898 166.047 152.199 165.968Z" fill="white"/>
<path d="M146.557 147.863C148.125 146.28 149.368 144.398 150.215 142.327C151.062 140.256 151.496 138.036 151.493 135.794C151.495 135.565 151.585 135.346 151.744 135.183C151.904 135.021 152.122 134.929 152.348 134.929C152.575 134.929 152.792 135.021 152.952 135.183C153.112 135.346 153.202 135.565 153.203 135.794C153.199 138.038 153.633 140.259 154.479 142.333C155.324 144.406 156.566 146.291 158.132 147.878C159.698 149.465 161.558 150.724 163.605 151.583C165.652 152.442 167.847 152.883 170.063 152.882C170.289 152.884 170.506 152.975 170.667 153.136C170.828 153.298 170.918 153.518 170.918 153.748C170.918 153.977 170.828 154.197 170.668 154.36C170.507 154.522 170.29 154.613 170.063 154.613C165.596 154.612 161.311 156.405 158.15 159.6C154.988 162.794 153.209 167.128 153.203 171.649C153.203 171.879 153.113 172.099 152.953 172.261C152.792 172.424 152.575 172.515 152.348 172.515C152.236 172.516 152.124 172.494 152.02 172.45C151.917 172.407 151.823 172.342 151.744 172.261C151.584 172.099 151.493 171.879 151.493 171.649C151.487 167.129 149.709 162.796 146.549 159.602C143.389 156.407 139.105 154.613 134.639 154.613C134.413 154.613 134.195 154.522 134.035 154.359C133.876 154.197 133.786 153.977 133.784 153.748C133.784 153.518 133.874 153.298 134.035 153.136C134.195 152.974 134.412 152.882 134.639 152.882C136.855 152.882 139.048 152.438 141.093 151.577C143.139 150.716 144.996 149.454 146.557 147.863ZM152.348 166.001C153.249 163.119 154.821 160.499 156.933 158.362C159.046 156.225 161.635 154.635 164.483 153.725C161.635 152.813 159.045 151.222 156.933 149.084C154.821 146.946 153.249 144.325 152.348 141.442C151.448 144.324 149.876 146.945 147.765 149.082C145.654 151.22 143.066 152.812 140.219 153.725C143.066 154.636 145.654 156.227 147.765 158.364C149.876 160.501 151.448 163.12 152.348 166.001Z" fill="black"/>
<path d="M448.563 348.494C447.663 345.613 446.091 342.994 443.98 340.857C441.869 338.72 439.281 337.129 436.434 336.218C439.281 335.305 441.869 333.713 443.98 331.575C446.091 329.438 447.663 326.817 448.563 323.935C449.464 326.817 451.036 329.438 453.147 331.575C455.258 333.713 457.846 335.305 460.692 336.218C457.846 337.129 455.258 338.72 453.147 340.857C451.036 342.994 449.464 345.613 448.563 348.494Z" fill="white"/>
<path d="M466.876 335.606C467.037 335.768 467.127 335.988 467.127 336.217C467.126 336.447 467.036 336.666 466.876 336.829C466.797 336.91 466.703 336.974 466.599 337.018C466.496 337.061 466.384 337.083 466.272 337.083C464.059 337.083 461.867 337.524 459.822 338.381C457.777 339.239 455.919 340.495 454.354 342.079C452.789 343.663 451.548 345.544 450.701 347.614C449.854 349.683 449.418 351.902 449.418 354.142C449.418 354.372 449.328 354.592 449.167 354.754C449.007 354.916 448.79 355.007 448.563 355.007C448.336 355.007 448.119 354.916 447.958 354.754C447.798 354.592 447.708 354.372 447.708 354.142C447.708 351.901 447.272 349.682 446.424 347.612C445.577 345.542 444.335 343.661 442.77 342.077C441.204 340.493 439.345 339.237 437.3 338.38C435.254 337.523 433.062 337.082 430.848 337.083C430.622 337.081 430.405 336.99 430.244 336.829C430.088 336.664 430.001 336.445 429.999 336.217C429.999 335.989 430.087 335.77 430.244 335.606C430.405 335.445 430.622 335.354 430.848 335.352C433.062 335.353 435.254 334.912 437.3 334.055C439.345 333.198 441.204 331.942 442.77 330.358C444.335 328.773 445.577 326.893 446.424 324.822C447.272 322.752 447.708 320.534 447.708 318.293C447.707 318.179 447.729 318.066 447.772 317.961C447.814 317.855 447.877 317.76 447.957 317.679C448.036 317.599 448.131 317.535 448.235 317.492C448.339 317.449 448.45 317.427 448.563 317.428C448.675 317.427 448.787 317.449 448.891 317.492C448.995 317.535 449.09 317.599 449.169 317.679C449.249 317.76 449.312 317.855 449.354 317.961C449.397 318.066 449.419 318.179 449.418 318.293C449.418 320.533 449.854 322.751 450.701 324.821C451.548 326.891 452.789 328.771 454.354 330.356C455.919 331.94 457.777 333.196 459.822 334.054C461.867 334.911 464.059 335.352 466.272 335.352C466.384 335.352 466.496 335.374 466.599 335.417C466.703 335.461 466.797 335.525 466.876 335.606ZM448.563 323.935C447.663 326.817 446.091 329.437 443.98 331.575C441.869 333.713 439.281 335.305 436.434 336.217C439.281 337.129 441.869 338.72 443.98 340.856C446.091 342.993 447.663 345.613 448.563 348.494C449.463 345.613 451.035 342.993 453.146 340.856C455.257 338.72 457.845 337.129 460.692 336.217C457.845 335.305 455.257 333.713 453.146 331.575C451.035 329.437 449.463 326.817 448.563 323.935Z" fill="black"/>
<path d="M159.302 511.206C159.302 507.836 160.289 504.541 162.139 501.738C163.989 498.936 166.619 496.752 169.695 495.462C172.772 494.172 176.157 493.834 179.423 494.492C182.689 495.15 185.689 496.773 188.044 499.156C190.399 501.539 192.002 504.576 192.652 507.882C193.302 511.188 192.968 514.614 191.694 517.728C190.42 520.842 188.262 523.504 185.493 525.376C182.724 527.249 179.469 528.248 176.139 528.248C173.925 528.256 171.733 527.82 169.686 526.967C167.64 526.113 165.781 524.858 164.216 523.274C162.651 521.69 161.411 519.808 160.568 517.737C159.724 515.666 159.294 513.447 159.302 511.206Z" fill="#0F52BA"/>
<path d="M441.461 386.392C441.462 388.517 440.84 390.595 439.675 392.362C438.509 394.129 436.852 395.507 434.912 396.321C432.973 397.135 430.838 397.348 428.779 396.934C426.72 396.519 424.828 395.496 423.344 393.993C421.859 392.491 420.848 390.576 420.439 388.492C420.029 386.408 420.24 384.247 421.044 382.284C421.848 380.321 423.209 378.643 424.955 377.464C426.702 376.284 428.754 375.655 430.854 375.656C433.667 375.656 436.365 376.787 438.354 378.8C440.343 380.814 441.461 383.544 441.461 386.392ZM423.792 386.392C423.791 387.801 424.203 389.179 424.975 390.352C425.748 391.524 426.847 392.438 428.133 392.978C429.419 393.519 430.835 393.661 432.201 393.386C433.567 393.112 434.821 392.434 435.806 391.438C436.791 390.442 437.462 389.172 437.734 387.79C438.007 386.408 437.867 384.975 437.335 383.672C436.802 382.37 435.9 381.257 434.742 380.474C433.585 379.691 432.223 379.273 430.831 379.273C428.969 379.277 427.184 380.03 425.869 381.364C424.553 382.699 423.815 384.507 423.815 386.392H423.792Z" fill="#172048"/>
<path d="M476.885 307.114C474.787 307.114 472.736 306.484 470.992 305.305C469.248 304.125 467.888 302.448 467.085 300.486C466.282 298.525 466.072 296.366 466.482 294.283C466.891 292.201 467.901 290.288 469.385 288.786C470.868 287.285 472.758 286.262 474.816 285.848C476.873 285.434 479.006 285.646 480.944 286.459C482.882 287.271 484.539 288.648 485.705 290.413C486.87 292.179 487.492 294.254 487.492 296.378C487.491 299.225 486.373 301.955 484.384 303.968C482.395 305.981 479.698 307.113 476.885 307.114ZM476.885 289.23C475.492 289.229 474.131 289.646 472.972 290.428C471.814 291.211 470.911 292.323 470.377 293.626C469.844 294.928 469.704 296.361 469.975 297.743C470.247 299.126 470.917 300.396 471.902 301.393C472.887 302.39 474.141 303.068 475.507 303.343C476.873 303.618 478.289 303.476 479.576 302.936C480.862 302.396 481.961 301.482 482.735 300.31C483.508 299.137 483.92 297.759 483.918 296.349C483.912 294.465 483.169 292.661 481.85 291.332C480.531 290.003 478.746 289.257 476.885 289.259V289.23Z" fill="#172048"/>
<path d="M181.132 86.5383C180.917 86.605 180.738 86.7543 180.631 86.9539C180.524 87.1536 180.5 87.3876 180.562 87.6056C182.317 93.5824 184.335 99.7207 185.441 102.98L162.345 87.4325C162.206 87.3374 162.041 87.2872 161.872 87.2883H19.6927C15.9135 87.2883 12.2891 85.7688 9.61684 83.064C6.94456 80.3592 5.44334 76.6907 5.44334 72.8656V36.1742C5.44334 32.349 6.94456 28.6806 9.61684 25.9758C12.2891 23.271 15.9135 21.7515 19.6927 21.7515H176.572C180.351 21.7515 183.975 23.271 186.648 25.9758C189.32 28.6806 190.821 32.349 190.821 36.1742V72.8483C190.827 75.8699 189.894 78.817 188.156 81.2734C186.417 83.7297 183.96 85.5714 181.132 86.5383ZM83.4156 66.9234H151.123C151.349 66.9234 151.567 66.8322 151.727 66.67C151.888 66.5077 151.978 66.2876 151.978 66.0581C151.978 65.8285 151.888 65.6084 151.727 65.4461C151.567 65.2839 151.349 65.1927 151.123 65.1927H83.4156C83.1889 65.1927 82.9714 65.2839 82.811 65.4461C82.6507 65.6084 82.5606 65.8285 82.5606 66.0581C82.5606 66.2876 82.6507 66.5077 82.811 66.67C82.9714 66.8322 83.1889 66.9234 83.4156 66.9234ZM39.1458 53.0776H151.123C151.349 53.0776 151.567 52.9864 151.727 52.8242C151.888 52.6619 151.978 52.4418 151.978 52.2122C151.978 51.9827 151.888 51.7626 151.727 51.6003C151.567 51.4381 151.349 51.3469 151.123 51.3469H39.1458C38.9191 51.3469 38.7016 51.4381 38.5413 51.6003C38.3809 51.7626 38.2909 51.9827 38.2909 52.2122C38.2909 52.4418 38.3809 52.6619 38.5413 52.8242C38.7016 52.9864 38.9191 53.0776 39.1458 53.0776ZM39.1458 39.1914H135.181C135.407 39.1914 135.625 39.1002 135.785 38.938C135.945 38.7757 136.035 38.5556 136.035 38.3261C136.035 38.0965 135.945 37.8764 135.785 37.7141C135.625 37.5519 135.407 37.4607 135.181 37.4607H39.1458C38.9191 37.4607 38.7016 37.5519 38.5413 37.7141C38.3809 37.8764 38.2909 38.0965 38.2909 38.3261C38.2909 38.5556 38.3809 38.7757 38.5413 38.938C38.7016 39.1002 38.9191 39.1914 39.1458 39.1914Z" fill="white"/>
<path d="M185.184 86.4341C184.318 86.9957 183.4 87.471 182.443 87.8533C182.608 88.4302 182.773 88.9725 182.944 89.5263C184.01 93.0455 185.116 96.4839 186.005 99.2011C186.575 100.874 187.025 102.276 187.362 103.239C187.527 103.736 187.658 104.122 187.749 104.393L187.886 104.797C187.943 104.968 187.946 105.153 187.894 105.326C187.843 105.499 187.739 105.651 187.599 105.762C187.458 105.873 187.286 105.937 187.108 105.945C186.93 105.953 186.753 105.905 186.604 105.807L169.504 94.2974L161.605 88.9841H19.6813C15.4486 88.9841 11.3894 87.2822 8.39642 84.2528C5.40347 81.2235 3.72206 77.1148 3.72206 72.8306V36.1738C3.72206 31.8897 5.40347 27.781 8.39642 24.7516C11.3894 21.7223 15.4486 20.0204 19.6813 20.0204H176.572C180.805 20.0204 184.864 21.7223 187.857 24.7516C190.85 27.781 192.531 31.8897 192.531 36.1738V72.8479C192.533 75.5549 191.86 78.2186 190.576 80.5931C189.292 82.9676 187.438 84.9765 185.184 86.4341ZM190.821 36.1738C190.821 32.3487 189.32 28.6802 186.648 25.9754C183.976 23.2706 180.351 21.7511 176.572 21.7511H19.6813C15.9021 21.7511 12.2778 23.2706 9.60553 25.9754C6.93326 28.6802 5.43198 32.3487 5.43198 36.1738V72.8479C5.43198 76.6731 6.93326 80.3415 9.60553 83.0463C12.2778 85.7511 15.9021 87.2706 19.6813 87.2706H161.884C162.052 87.2695 162.217 87.3197 162.357 87.4149L185.452 102.963C184.346 99.6857 182.329 93.5647 180.573 87.5879C180.511 87.3699 180.536 87.1359 180.642 86.9363C180.749 86.7366 180.929 86.5874 181.143 86.5207C183.967 85.5553 186.421 83.718 188.159 81.2674C189.897 78.8168 190.832 75.8762 190.833 72.8595L190.821 36.1738Z" fill="black"/>
<path d="M39.1455 37.4374H135.18C135.407 37.4374 135.624 37.5286 135.785 37.6909C135.945 37.8532 136.035 38.0733 136.035 38.3028C136.035 38.5323 135.945 38.7524 135.785 38.9147C135.624 39.077 135.407 39.1682 135.18 39.1682H39.1455C38.9188 39.1682 38.7013 39.077 38.541 38.9147C38.3806 38.7524 38.2905 38.5323 38.2905 38.3028C38.2905 38.0733 38.3806 37.8532 38.541 37.6909C38.7013 37.5286 38.9188 37.4374 39.1455 37.4374Z" fill="black"/>
<path d="M39.1458 51.3464H151.123C151.349 51.3464 151.567 51.4376 151.727 51.5999C151.887 51.7622 151.978 51.9823 151.978 52.2118C151.978 52.4413 151.887 52.6614 151.727 52.8237C151.567 52.986 151.349 53.0772 151.123 53.0772H39.1458C38.919 53.0772 38.7016 52.986 38.5412 52.8237C38.3809 52.6614 38.2908 52.4413 38.2908 52.2118C38.2908 51.9823 38.3809 51.7622 38.5412 51.5999C38.7016 51.4376 38.919 51.3464 39.1458 51.3464Z" fill="black"/>
<path d="M83.4155 65.1925H151.123C151.349 65.1925 151.567 65.2837 151.727 65.446C151.887 65.6083 151.978 65.8284 151.978 66.0579C151.978 66.2874 151.887 66.5075 151.727 66.6698C151.567 66.8321 151.349 66.9232 151.123 66.9232H83.4155C83.1888 66.9232 82.9713 66.8321 82.811 66.6698C82.6506 66.5075 82.5606 66.2874 82.5606 66.0579C82.5606 65.8284 82.6506 65.6083 82.811 65.446C82.9713 65.2837 83.1888 65.1925 83.4155 65.1925Z" fill="black"/>
</svg>
